<svg width="156" height="156" viewBox="0 0 156 156" fill="none" xmlns="http://www.w3.org/2000/svg">
<path d="M78 14.625C43.0554 14.625 14.625 43.0554 14.625 78C14.625 112.945 43.0554 141.375 78 141.375C112.945 141.375 141.375 112.945 141.375 78C141.375 43.0554 112.945 14.625 78 14.625ZM110.982 56.7602L70.0324 105.51C69.5832 106.045 69.0243 106.478 68.3935 106.778C67.7626 107.078 67.0747 107.239 66.3762 107.25H66.2939C65.6106 107.25 64.935 107.106 64.3109 106.828C63.6868 106.549 63.1281 106.143 62.6712 105.635L45.1212 86.1352C44.6755 85.6624 44.3287 85.1054 44.1014 84.4967C43.8741 83.8881 43.7707 83.2401 43.7973 82.591C43.824 81.9418 43.9801 81.3045 44.2566 80.7165C44.533 80.1286 44.9242 79.6018 45.4072 79.1672C45.8901 78.7326 46.4551 78.3989 47.0688 78.1857C47.6826 77.9726 48.3328 77.8842 48.9812 77.9259C49.6295 77.9677 50.263 78.1385 50.8444 78.4286C51.4258 78.7186 51.9434 79.1219 52.3666 79.6148L66.1659 94.9467L103.518 50.4898C104.355 49.5211 105.541 48.921 106.817 48.8193C108.094 48.7176 109.36 49.1223 110.34 49.9461C111.321 50.7699 111.938 51.9464 112.058 53.2215C112.178 54.4966 111.792 55.7678 110.982 56.7602Z" fill="#F6BB00"/>
</svg>
