<svg width="135" height="135" viewBox="0 0 135 135" fill="none" xmlns="http://www.w3.org/2000/svg">
<path d="M135 67.5C135 85.4021 127.888 102.571 115.23 115.23C102.571 127.888 85.4021 135 67.5 135C49.5979 135 32.429 127.888 19.7703 115.23C7.11159 102.571 0 85.4021 0 67.5C0 49.5979 7.11159 32.429 19.7703 19.7703C32.429 7.11159 49.5979 0 67.5 0C85.4021 0 102.571 7.11159 115.23 19.7703C127.888 32.429 135 49.5979 135 67.5ZM67.5 33.75C66.4336 33.7506 65.3791 33.9746 64.4045 34.4075C63.4298 34.8405 62.5567 35.4727 61.8413 36.2636C61.126 37.0545 60.5842 37.9865 60.2509 38.9995C59.9176 40.0126 59.8002 41.0842 59.9062 42.1453L62.8594 71.7356C62.9586 72.8981 63.4905 73.9809 64.3498 74.7701C65.2091 75.5592 66.3333 75.997 67.5 75.997C68.6667 75.997 69.7909 75.5592 70.6502 74.7701C71.5095 73.9809 72.0414 72.8981 72.1406 71.7356L75.0938 42.1453C75.1998 41.0842 75.0824 40.0126 74.7491 38.9995C74.4158 37.9865 73.874 37.0545 73.1587 36.2636C72.4433 35.4727 71.5702 34.8405 70.5955 34.4075C69.6209 33.9746 68.5664 33.7506 67.5 33.75ZM67.5169 84.375C65.2791 84.375 63.133 85.2639 61.5507 86.8463C59.9683 88.4286 59.0794 90.5747 59.0794 92.8125C59.0794 95.0503 59.9683 97.1964 61.5507 98.7787C63.133 100.361 65.2791 101.25 67.5169 101.25C69.7546 101.25 71.9007 100.361 73.4831 98.7787C75.0654 97.1964 75.9544 95.0503 75.9544 92.8125C75.9544 90.5747 75.0654 88.4286 73.4831 86.8463C71.9007 85.2639 69.7546 84.375 67.5169 84.375Z" fill="#0069AF"/>
</svg>
