<svg width="40" height="40" viewBox="0 0 40 40" fill="none" xmlns="http://www.w3.org/2000/svg">
<path d="M30 13.333H31.6667C33.4348 13.333 35.1305 14.0354 36.3807 15.2856C37.631 16.5359 38.3333 18.2316 38.3333 19.9997C38.3333 21.7678 37.631 23.4635 36.3807 24.7137C35.1305 25.964 33.4348 26.6663 31.6667 26.6663H30" stroke="#DBA11C" stroke-width="3" stroke-linecap="round" stroke-linejoin="round"/>
<path d="M3.33203 13.334H29.9987V28.334C29.9987 30.1021 29.2963 31.7978 28.0461 33.048C26.7958 34.2983 25.1001 35.0007 23.332 35.0007H9.9987C8.23059 35.0007 6.5349 34.2983 5.28465 33.048C4.03441 31.7978 3.33203 30.1021 3.33203 28.334V13.334Z" stroke="#DBA11C" stroke-width="3" stroke-linecap="round" stroke-linejoin="round"/>
<path d="M10 1.66699V6.66699" stroke="#DBA11C" stroke-width="3" stroke-linecap="round" stroke-linejoin="round"/>
<path d="M16.668 1.66602V6.66602" stroke="#DBA11C" stroke-width="3" stroke-linecap="round" stroke-linejoin="round"/>
<path d="M23.332 1.66602V6.66602" stroke="#DBA11C" stroke-width="3" stroke-linecap="round" stroke-linejoin="round"/>
</svg>
