<svg width="95" height="95" viewBox="0 0 95 95" fill="none" xmlns="http://www.w3.org/2000/svg">
<rect width="95" height="95" rx="8" fill="#F6BB00"/>
<path d="M69.0013 30.666H27.0013C26.3825 30.666 25.789 30.9118 25.3514 31.3494C24.9138 31.787 24.668 32.3805 24.668 32.9993V42.3327H26.7516C29.0756 42.3327 31.2316 43.9217 31.605 46.2153C31.7187 46.8851 31.6849 47.5716 31.506 48.227C31.327 48.8823 31.0072 49.4907 30.5688 50.0097C30.1305 50.5287 29.5842 50.9458 28.968 51.2319C28.3518 51.5179 27.6806 51.6661 27.0013 51.666H24.668V60.9994C24.668 61.6182 24.9138 62.2117 25.3514 62.6493C25.789 63.0869 26.3825 63.3327 27.0013 63.3327H69.0013C69.6201 63.3327 70.2136 63.0869 70.6512 62.6493C71.0888 62.2117 71.3346 61.6182 71.3346 60.9994V51.666H69.0013C68.322 51.6661 67.6508 51.5179 67.0346 51.2319C66.4184 50.9458 65.8721 50.5287 65.4338 50.0097C64.9954 49.4907 64.6756 48.8823 64.4967 48.227C64.3177 47.5716 64.2839 46.8851 64.3976 46.2153C64.771 43.9217 66.927 42.3327 69.251 42.3327H71.3346V32.9993C71.3346 32.3805 71.0888 31.787 70.6512 31.3494C70.2136 30.9118 69.6201 30.666 69.0013 30.666ZM45.668 58.666H41.0013V53.9994H45.668V58.666ZM45.668 49.3327H41.0013V44.666H45.668V49.3327ZM45.668 39.9993H41.0013V35.3327H45.668V39.9993Z" fill="white"/>
</svg>
