<svg width="40" height="42" viewBox="0 0 40 42" fill="none" xmlns="http://www.w3.org/2000/svg">
<rect width="40" height="41.4286" rx="4.38196" fill="#DBA11C"/>
<path d="M13.75 19.75H16.25V22.25H13.75V19.75ZM13.75 24.75H16.25V27.25H13.75V24.75ZM18.75 19.75H21.25V22.25H18.75V19.75ZM18.75 24.75H21.25V27.25H18.75V24.75ZM23.75 19.75H26.25V22.25H23.75V19.75ZM23.75 24.75H26.25V27.25H23.75V24.75Z" fill="white"/>
<path d="M11.25 33.5H28.75C30.1288 33.5 31.25 32.3788 31.25 31V13.5C31.25 12.1213 30.1288 11 28.75 11H26.25V8.5H23.75V11H16.25V8.5H13.75V11H11.25C9.87125 11 8.75 12.1213 8.75 13.5V31C8.75 32.3788 9.87125 33.5 11.25 33.5ZM28.75 16L28.7513 31H11.25V16H28.75Z" fill="white"/>
</svg>
