<svg width="43" height="41" viewBox="0 0 43 41" fill="none" xmlns="http://www.w3.org/2000/svg">
<path d="M34.9375 17.6529V33.191C34.9375 34.2067 34.5128 35.1808 33.7568 35.899C33.0008 36.6172 31.9754 37.0207 30.9063 37.0207H12.0938C11.0246 37.0207 9.99923 36.6172 9.24323 35.899C8.48722 35.1808 8.0625 34.2067 8.0625 33.191V7.65977C8.0625 6.64407 8.48722 5.66997 9.24323 4.95177C9.99923 4.23356 11.0246 3.83008 12.0938 3.83008H20.3872C21.0997 3.83018 21.783 4.09908 22.2869 4.57767L34.1506 15.8481C34.6543 16.3268 34.9374 16.976 34.9375 17.6529Z" stroke="#DBA11C" stroke-width="2.57895" stroke-linejoin="round"/>
<path d="M14.7812 29.3617H28.2188M21.5 4.46875V14.043C21.5 14.7201 21.7831 15.3695 22.2872 15.8483C22.7912 16.3271 23.4747 16.5961 24.1875 16.5961H34.2656L21.5 4.46875ZM14.7812 22.9789H28.2188H14.7812Z" stroke="#DBA11C" stroke-width="2.57895" stroke-linecap="round" stroke-linejoin="round"/>
<ellipse cx="32.6089" cy="32.6089" rx="8.24167" ry="8.24167" fill="#DBA11C"/>
<path d="M35.6468 30.4277L31.322 34.7525L29.1758 32.6062" stroke="white" stroke-width="1.7193" stroke-linecap="round" stroke-linejoin="round"/>
</svg>
