<svg width="60" height="57" viewBox="0 0 60 57" fill="none" xmlns="http://www.w3.org/2000/svg">
<path d="M48.75 24.6313V46.3125C48.75 47.7298 48.1574 49.089 47.1025 50.0911C46.0476 51.0933 44.6168 51.6562 43.125 51.6562H16.875C15.3832 51.6562 13.9524 51.0933 12.8975 50.0911C11.8426 49.089 11.25 47.7298 11.25 46.3125V10.6875C11.25 9.27025 11.8426 7.91105 12.8975 6.9089C13.9524 5.90675 15.3832 5.34375 16.875 5.34375H28.4473C29.4415 5.34389 30.3949 5.7191 31.098 6.38689L47.652 22.1131C48.3549 22.781 48.7498 23.6868 48.75 24.6313Z" stroke="#DBA11C" stroke-width="3" stroke-linejoin="round"/>
<path d="M20.625 40.9688H39.375M30 6.23438V19.5938C30 20.5386 30.3951 21.4447 31.0984 22.1128C31.8016 22.7809 32.7554 23.1562 33.75 23.1562H47.8125L30 6.23438ZM20.625 32.0625H39.375H20.625Z" stroke="#DBA11C" stroke-width="3" stroke-linecap="round" stroke-linejoin="round"/>
<circle cx="45.5" cy="45.5" r="11.5" fill="#DBA11C"/>
<path d="M49.7363 42.4609L43.7018 48.4954L40.707 45.5006" stroke="white" stroke-width="2" stroke-linecap="round" stroke-linejoin="round"/>
</svg>
