<svg width="40" height="42" viewBox="0 0 40 42" fill="none" xmlns="http://www.w3.org/2000/svg">
<rect width="40" height="41.4286" rx="4.38196" fill="#DBA11C"/>
<path d="M19.5 32.3203C25.7132 32.3203 30.75 27.2835 30.75 21.0703C30.75 14.8571 25.7132 9.82031 19.5 9.82031C13.2868 9.82031 8.25 14.8571 8.25 21.0703C8.25 27.2835 13.2868 32.3203 19.5 32.3203Z" stroke="white" stroke-width="2" stroke-linecap="round" stroke-linejoin="round"/>
<path d="M8.25 21.0703H30.75" stroke="white" stroke-width="2" stroke-linecap="round" stroke-linejoin="round"/>
<path d="M19.5 9.82031C22.3139 12.901 23.9131 16.8989 24 21.0703C23.9131 25.2418 22.3139 29.2397 19.5 32.3203C16.6861 29.2397 15.0869 25.2418 15 21.0703C15.0869 16.8989 16.6861 12.901 19.5 9.82031V9.82031Z" stroke="white" stroke-width="2" stroke-linecap="round" stroke-linejoin="round"/>
</svg>
