<svg width="34" height="34" viewBox="0 0 34 34" fill="none" xmlns="http://www.w3.org/2000/svg">
<g clip-path="url(#clip0)">
<path d="M7.45741 13.8338C8.12024 11.8284 9.39946 10.0836 11.1126 8.84821C12.8257 7.61286 14.8852 6.95008 16.9972 6.95442C19.3914 6.95442 21.5561 7.80442 23.2561 9.19558L28.2031 4.25C25.1884 1.62208 21.3252 0 16.9972 0C10.2964 0 4.52774 3.82217 1.75391 9.42083L7.45741 13.8338Z" fill="#EA4335"/>
<path d="M22.7209 25.5183C21.1767 26.5142 19.2161 27.0455 16.9976 27.0455C14.8939 27.0498 12.8422 26.3923 11.1329 25.1661C9.42361 23.9398 8.14333 22.207 7.47333 20.2129L1.75 24.5578C3.15426 27.4 5.32746 29.7915 8.02275 31.4606C10.718 33.1296 13.8274 34.0094 16.9976 33.9999C21.1527 33.9999 25.1222 32.5223 28.0957 29.7499L22.7223 25.5183H22.7209Z" fill="#34A853"/>
<path d="M28.0982 29.7494C31.2077 26.848 33.2265 22.53 33.2265 16.9994C33.2265 15.9935 33.0721 14.9126 32.8412 13.9082H17V20.4773H26.1177C25.6686 22.6859 24.4602 24.3958 22.7247 25.5178L28.0982 29.7494Z" fill="#4A90E2"/>
<path d="M7.47591 20.2121C7.12933 19.1764 6.95327 18.0913 6.95458 16.9991C6.95458 15.8913 7.13166 14.8273 7.46033 13.8328L1.75683 9.41992C0.590034 11.7754 -0.0114466 14.3705 0.000164977 16.9991C0.000164977 19.7191 0.630582 22.2833 1.75258 24.557L7.47591 20.2121Z" fill="#FBBC05"/>
</g>
<defs>
<clipPath id="clip0">
<rect width="34" height="34" fill="white"/>
</clipPath>
</defs>
</svg>
