<svg width="28" height="28" viewBox="0 0 28 28" fill="none" xmlns="http://www.w3.org/2000/svg">
<g clip-path="url(#clip0_5390_14756)">
<path d="M14 1.75C11.6794 1.75 9.45376 2.67187 7.81282 4.31282C6.17187 5.95376 5.25 8.17936 5.25 10.5V12.25H7C7.46413 12.25 7.90925 12.4344 8.23744 12.7626C8.56563 13.0908 8.75 13.5359 8.75 14V19.25C8.75 19.7141 8.56563 20.1592 8.23744 20.4874C7.90925 20.8156 7.46413 21 7 21H5.25C4.78587 21 4.34075 20.8156 4.01256 20.4874C3.68437 20.1592 3.5 19.7141 3.5 19.25V10.5C3.5 9.12112 3.77159 7.75574 4.29926 6.48182C4.82694 5.20791 5.60036 4.05039 6.57538 3.07538C7.55039 2.10036 8.70791 1.32694 9.98182 0.799265C11.2557 0.271591 12.6211 0 14 0C15.3789 0 16.7443 0.271591 18.0182 0.799265C19.2921 1.32694 20.4496 2.10036 21.4246 3.07538C22.3996 4.05039 23.1731 5.20791 23.7007 6.48182C24.2284 7.75574 24.5 9.12112 24.5 10.5V21C24.5 22.1603 24.0391 23.2731 23.2186 24.0936C22.3981 24.9141 21.2853 25.375 20.125 25.375H16.3905C16.2369 25.641 16.016 25.8619 15.75 26.0155C15.4839 26.1691 15.1822 26.25 14.875 26.25H13.125C12.6609 26.25 12.2158 26.0656 11.8876 25.7374C11.5594 25.4092 11.375 24.9641 11.375 24.5C11.375 24.0359 11.5594 23.5908 11.8876 23.2626C12.2158 22.9344 12.6609 22.75 13.125 22.75H14.875C15.1822 22.75 15.4839 22.8309 15.75 22.9845C16.016 23.1381 16.2369 23.359 16.3905 23.625H20.125C20.8212 23.625 21.4889 23.3484 21.9812 22.8562C22.4734 22.3639 22.75 21.6962 22.75 21H21C20.5359 21 20.0908 20.8156 19.7626 20.4874C19.4344 20.1592 19.25 19.7141 19.25 19.25V14C19.25 13.5359 19.4344 13.0908 19.7626 12.7626C20.0908 12.4344 20.5359 12.25 21 12.25H22.75V10.5C22.75 9.35093 22.5237 8.21312 22.0839 7.15152C21.6442 6.08992 20.9997 5.12533 20.1872 4.31282C19.3747 3.5003 18.4101 2.85578 17.3485 2.41605C16.2869 1.97633 15.1491 1.75 14 1.75Z" fill="#DBA11C"/>
</g>
<defs>
<clipPath id="clip0_5390_14756">
<rect width="28" height="28" fill="white"/>
</clipPath>
</defs>
</svg>
