<svg width="43" height="43" viewBox="0 0 43 43" fill="none" xmlns="http://www.w3.org/2000/svg">
<path d="M23.2917 10.8575V5.375H19.7083V10.8575C11.6458 11.7533 5.375 18.5796 5.375 26.8571C5.375 28.8458 6.9875 30.4583 8.97625 30.4583H14.3333C14.3333 34.4179 17.5404 37.625 21.5 37.625C25.4596 37.625 28.6667 34.4179 28.6667 30.4583H34.0237C36.0125 30.4583 37.625 28.8458 37.625 26.8571C37.625 18.5796 31.3542 11.7533 23.2917 10.8575ZM21.5 34.0417C19.5292 34.0417 17.9167 32.4292 17.9167 30.4583H25.0833C25.0833 32.4292 23.4708 34.0417 21.5 34.0417ZM21.5 26.875H8.95833C8.95833 19.9592 14.5842 14.3333 21.5 14.3333C28.4158 14.3333 34.0417 19.9592 34.0417 26.875H21.5Z" fill="#DBA11C"/>
</svg>
