<svg width="188" height="35" viewBox="0 0 188 35" fill="none" xmlns="http://www.w3.org/2000/svg">
<g clip-path="url(#clip0)">
<path fill-rule="evenodd" clip-rule="evenodd" d="M107.324 20.5336C107.056 20.7113 106.435 20.9058 105.461 21.1167C104.487 21.3276 103.831 21.478 103.492 21.5675C103.154 21.6569 102.841 21.8238 102.553 22.0681C102.265 22.3124 102.121 22.6498 102.121 23.0805C102.121 23.5364 102.289 23.9226 102.627 24.239C102.965 24.5554 103.417 24.7134 103.983 24.7134C104.621 24.7134 105.205 24.5746 105.734 24.2966C106.264 24.0186 106.667 23.6338 106.945 23.1424C107.198 22.7128 107.324 21.9222 107.324 20.7705V20.5336ZM51.3721 20.5336C51.1037 20.7113 50.4824 20.9058 49.5084 21.1167C48.5344 21.3276 47.8782 21.478 47.5398 21.5675C47.2014 21.6569 46.8883 21.8238 46.6002 22.0681C46.3122 22.3124 46.1683 22.6498 46.1683 23.0805C46.1683 23.5364 46.337 23.9226 46.6747 24.239C47.0122 24.5554 47.4643 24.7134 48.0306 24.7134C48.6684 24.7134 49.2523 24.5746 49.7819 24.2966C50.3116 24.0186 50.7152 23.6338 50.9925 23.1424C51.2456 22.7128 51.3721 21.9222 51.3721 20.7705V20.5336ZM64.7527 16.0182C64.1843 16.0182 63.676 16.1811 63.2272 16.5071C62.7787 16.833 62.426 17.3129 62.1691 17.947C61.9121 18.5809 61.7837 19.3248 61.7837 20.1784C61.7837 21.0862 61.9188 21.8484 62.1888 22.4647C62.4589 23.0807 62.8228 23.5409 63.2805 23.8449C63.7382 24.1486 64.2373 24.3006 64.7778 24.3006C65.329 24.3006 65.8326 24.1559 66.2883 23.8659C66.744 23.5762 67.1115 23.1238 67.3908 22.5087C67.6701 21.8938 67.8097 21.1169 67.8097 20.1784C67.8097 19.3013 67.6692 18.5495 67.3885 17.9231C67.1076 17.2966 66.7348 16.8226 66.2697 16.5008C65.8046 16.179 65.299 16.0182 64.7527 16.0182ZM33.4957 15.8247C32.7225 15.8247 32.0848 16.0964 31.5833 16.6399C31.0815 17.1835 30.7764 17.9138 30.6677 18.8307H36.3488C36.2698 17.8989 35.9793 17.1652 35.4775 16.6289C34.9755 16.0928 34.3151 15.8247 33.4957 15.8247ZM115.139 12.9219C115.715 12.9219 116.148 13.1037 116.436 13.4678C116.725 13.8318 116.959 14.2891 117.138 14.8394L119.818 23.2557L122.372 15.3552C122.556 14.8126 122.741 14.3487 122.927 13.9634C123.113 13.5784 123.326 13.3085 123.567 13.1539C123.807 12.9992 124.13 12.9219 124.537 12.9219C124.844 12.9219 125.138 13.0039 125.419 13.1683C125.7 13.3327 125.917 13.5536 126.068 13.8307C126.22 14.1077 126.296 14.4022 126.296 14.7145C126.263 14.8697 126.205 15.1113 126.122 15.4399C126.038 15.7685 125.951 16.0349 125.858 16.2389L121.376 28.1665C120.982 29.2286 120.595 30.0651 120.215 30.6764C119.834 31.2877 119.32 31.7626 118.672 32.1011C118.024 32.4398 117.163 32.609 116.091 32.609C115.05 32.609 114.246 32.485 113.678 32.2368C113.111 31.9884 112.828 31.5164 112.828 30.8202C112.828 30.348 112.973 29.9804 113.265 29.7171C113.556 29.454 113.968 29.3223 114.499 29.3223C114.703 29.3223 114.899 29.3496 115.09 29.4045C115.289 29.4508 115.459 29.4741 115.602 29.4741C115.956 29.4741 116.225 29.426 116.409 29.3295C116.593 29.2331 116.766 29.0536 116.928 28.7905C117.091 28.5276 117.287 28.1175 117.518 27.56L117.815 26.8834L113.605 16.191C113.346 15.6027 113.216 15.1515 113.216 14.8376C113.216 14.4966 113.303 14.1796 113.478 13.8862C113.652 13.5926 113.891 13.3587 114.193 13.1839C114.496 13.0091 114.811 12.9219 115.139 12.9219ZM105.035 12.896C106.575 12.896 107.801 13.0857 108.712 13.4653C109.623 13.8447 110.267 14.4469 110.645 15.2719C111.022 16.097 111.211 17.1677 111.211 18.4836C111.211 19.2963 111.209 19.942 111.205 20.42C111.201 20.8981 111.194 21.4832 111.186 22.1751C111.186 22.9762 111.292 23.7288 111.505 24.4332C111.718 25.1375 111.825 25.6014 111.825 25.8247C111.825 26.2563 111.633 26.6413 111.249 26.9796C110.865 27.3181 110.428 27.4873 109.938 27.4873C109.514 27.4873 109.116 27.3066 108.743 26.9453C108.37 26.584 108.035 26.1172 107.738 25.5449C107.046 26.1716 106.301 26.6521 105.504 26.9861C104.705 27.3201 103.805 27.4873 102.802 27.4873C101.88 27.4873 101.067 27.3016 100.363 26.9306C99.6587 26.5593 99.1151 26.0542 98.7317 25.4151C98.3485 24.776 98.157 24.0804 98.157 23.328C98.157 22.3174 98.4741 21.4559 99.1082 20.7439C99.7424 20.0318 100.584 19.5605 101.632 19.3302C101.85 19.2796 102.391 19.1651 103.256 18.9869C104.121 18.8088 104.87 18.6435 105.503 18.491C106.136 18.3388 106.743 18.178 107.324 18.0091C107.285 17.2912 107.125 16.7476 106.845 16.3784C106.565 16.0092 105.961 15.8247 105.035 15.8247C104.215 15.8247 103.604 15.936 103.203 16.1587C102.801 16.3816 102.448 16.7294 102.144 17.2027C101.839 17.6758 101.607 18.0073 101.449 18.197C101.291 18.3869 100.956 18.4818 100.445 18.4818C99.9911 18.4818 99.599 18.335 99.2682 18.0414C98.9374 17.7478 98.772 17.3662 98.772 16.8965C98.772 16.2303 99.0005 15.5903 99.4571 14.9763C99.9139 14.3623 100.613 13.8621 101.554 13.4757C102.494 13.0893 103.655 12.896 105.035 12.896ZM49.0829 12.896C50.623 12.896 51.8483 13.0857 52.7594 13.4653C53.6704 13.8447 54.3147 14.4469 54.6923 15.2719C55.0698 16.097 55.2587 17.1677 55.2587 18.4836C55.2587 19.2963 55.2565 19.942 55.2522 20.42C55.2482 20.8981 55.2419 21.4832 55.2334 22.1751C55.2334 22.9762 55.34 23.7288 55.553 24.4332C55.7661 25.1375 55.8729 25.6014 55.8729 25.8247C55.8729 26.2563 55.6808 26.6413 55.2968 26.9796C54.9127 27.3181 54.4758 27.4873 53.9859 27.4873C53.562 27.4873 53.1636 27.3066 52.7906 26.9453C52.4177 26.584 52.0826 26.1172 51.7859 25.5449C51.0941 26.1716 50.3492 26.6521 49.5511 26.9861C48.753 27.3201 47.8526 27.4873 46.8498 27.4873C45.9277 27.4873 45.1146 27.3016 44.4105 26.9306C43.7064 26.5593 43.1627 26.0542 42.7793 25.4151C42.3962 24.776 42.2046 24.0804 42.2046 23.328C42.2046 22.3174 42.5215 21.4559 43.1558 20.7439C43.7901 20.0318 44.6314 19.5605 45.6799 19.3302C45.8977 19.2796 46.4388 19.1651 47.3036 18.9869C48.1684 18.8088 48.9173 18.6435 49.5507 18.491C50.1841 18.3388 50.791 18.178 51.3721 18.0091C51.3329 17.2912 51.1731 16.7476 50.8927 16.3784C50.6124 16.0092 50.0088 15.8247 49.0823 15.8247C48.2627 15.8247 47.6521 15.936 47.2506 16.1587C46.8491 16.3816 46.4959 16.7294 46.1913 17.2027C45.8867 17.6758 45.6551 18.0073 45.4968 18.197C45.3386 18.3869 45.0038 18.4818 44.4924 18.4818C44.0387 18.4818 43.6466 18.335 43.3158 18.0414C42.985 17.7478 42.8196 17.3662 42.8196 16.8965C42.8196 16.2303 43.0481 15.5903 43.5047 14.9763C43.9615 14.3623 44.6604 13.8621 45.6011 13.4757C46.542 13.0893 47.7027 12.896 49.0829 12.896ZM33.6085 12.896C34.9946 12.896 36.1877 13.1936 37.1881 13.7889C38.1883 14.3839 38.9376 15.1535 39.4356 16.097C39.9336 17.0406 40.1827 17.9999 40.1827 18.9745C40.1827 19.9456 39.9027 20.577 39.3427 20.8692C38.7825 21.1614 38.0328 21.3075 37.0934 21.3075H30.6663C30.6724 21.8823 30.8183 22.4509 31.1039 23.0134C31.3897 23.5759 31.7621 23.9955 32.2218 24.2724C32.6813 24.5493 33.1938 24.6877 33.7589 24.6877C34.1486 24.6877 34.5002 24.6427 34.8135 24.5526C35.1268 24.4625 35.4305 24.3214 35.7249 24.1294C36.0189 23.9375 36.3108 23.7132 36.6002 23.4569C36.8896 23.2006 37.2295 22.8863 37.6201 22.5143C37.8419 22.3219 38.1469 22.2255 38.5352 22.2255C38.9526 22.2255 39.298 22.3479 39.5717 22.5923C39.8454 22.8366 39.9822 23.1717 39.9822 23.5974C39.9822 23.9547 39.8512 24.3591 39.5891 24.8105C39.3271 25.262 38.9392 25.6897 38.4251 26.0932C37.911 26.4968 37.2698 26.8301 36.5015 27.093C35.7334 27.3558 34.8527 27.4873 33.8592 27.4873C31.588 27.4873 29.817 26.8292 28.5462 25.5131C27.2756 24.1972 26.6402 22.419 26.6402 20.1788C26.6402 19.1245 26.7953 18.1473 27.106 17.2476C27.4164 16.3477 27.8741 15.5709 28.4788 14.9169C29.0838 14.2631 29.8255 13.7629 30.7039 13.416C31.5824 13.0694 32.5506 12.896 33.6085 12.896ZM75.6196 7.78711C76.4045 7.78711 76.9291 8.03484 77.1934 8.52985C77.4577 9.02509 77.675 9.67818 77.8458 10.4893L80.0356 21.1786L82.4552 11.2434C82.66 10.4516 82.8462 9.84235 83.0138 9.41554C83.1814 8.9885 83.4657 8.61024 83.8667 8.28099C84.2678 7.95173 84.8076 7.78711 85.4862 7.78711C86.182 7.78711 86.7237 7.95896 87.1108 8.30244C87.498 8.64615 87.7635 9.01244 87.9072 9.40154C88.0506 9.79063 88.2359 10.4047 88.4627 11.2434L90.9064 21.1786L93.0935 10.5067C93.2032 9.97785 93.3148 9.53883 93.4288 9.18993C93.5425 8.84081 93.747 8.51969 94.0425 8.22679C94.3377 7.93367 94.762 7.78711 95.3153 7.78711C95.8726 7.78711 96.347 7.97499 96.7389 8.35099C97.1306 8.72677 97.3264 9.19423 97.3264 9.7536C97.3264 10.1194 97.2315 10.6935 97.0422 11.4757L93.9829 23.9657C93.7741 24.8101 93.5962 25.4415 93.4491 25.8595C93.3021 26.2775 93.042 26.6533 92.6692 26.9868C92.2961 27.3204 91.7739 27.4873 91.1027 27.4873C90.4702 27.4873 89.9629 27.3274 89.5806 27.0074C89.1983 26.6876 88.9347 26.3333 88.7896 25.9449C88.6446 25.5562 88.4604 24.9614 88.2366 24.1604L85.4887 13.1283L82.6933 24.2069C82.4874 24.949 82.3099 25.5183 82.1611 25.9144C82.012 26.3107 81.7455 26.6718 81.3614 26.9981C80.9771 27.3242 80.4673 27.4873 79.8319 27.4873C79.3214 27.4873 78.8988 27.3899 78.5645 27.1948C78.2301 26.9999 77.9631 26.731 77.7639 26.3879C77.5645 26.0449 77.4029 25.6255 77.2794 25.1294C77.1558 24.6335 77.0493 24.2455 76.96 23.9657L73.9009 11.4757C73.7145 10.7398 73.6212 10.1657 73.6212 9.7536C73.6212 9.20168 73.8139 8.73603 74.1995 8.35642C74.5849 7.97703 75.0583 7.78711 75.6196 7.78711ZM69.8708 7.78711C70.4713 7.78711 70.9359 7.98267 71.2642 8.37335C71.5926 8.76425 71.7568 9.31279 71.7568 10.0192V25.2552C71.7568 25.9794 71.582 26.5325 71.2329 26.9143C70.8835 27.2962 70.4297 27.4873 69.8708 27.4873C69.3252 27.4873 68.8766 27.2903 68.525 26.8965C68.1734 26.5027 67.9977 25.9555 67.9977 25.2547V25.1712C67.8341 25.6558 67.5197 26.0713 67.0539 26.418C66.5884 26.7646 66.079 27.0295 65.5253 27.2126C64.9718 27.3958 64.3711 27.4873 63.723 27.4873C62.858 27.4873 62.0599 27.3039 61.328 26.9371C60.5964 26.5704 59.9641 26.0481 59.4314 25.3699C58.8988 24.6918 58.4972 23.9018 58.2262 22.9999C57.9554 22.0979 57.82 21.1199 57.82 20.0657C57.82 17.8388 58.3657 16.0957 59.4572 14.8365C60.5485 13.5773 61.9873 12.9477 63.7733 12.9477C64.8015 12.9477 65.6726 13.1274 66.3863 13.487C67.1 13.8465 67.6372 14.3623 67.9977 15.0343V10.1953C67.9977 9.42706 68.1593 8.83381 68.4827 8.41513C68.8059 7.99644 69.2688 7.78711 69.8708 7.78711ZM9.72623 7.78711C10.3623 7.78711 10.8793 8.00277 11.2771 8.4341C11.675 8.86543 11.8739 9.4957 11.8739 10.3249V15.3859H19.3921V10.3249C19.3921 9.49977 19.5851 8.87062 19.9709 8.43726C20.3565 8.0039 20.8628 7.78711 21.4892 7.78711C22.1255 7.78711 22.6423 8.00254 23.0402 8.43364C23.4382 8.86452 23.6369 9.49435 23.6369 10.3231V24.9388C23.6369 25.7703 23.4366 26.4028 23.0358 26.8366C22.6351 27.2705 22.1195 27.4873 21.4892 27.4873C20.8485 27.4873 20.3386 27.2698 19.9599 26.8348C19.5813 26.3997 19.3921 25.7678 19.3921 24.939V18.9596H11.8739V24.939C11.8739 25.7705 11.6735 26.4031 11.2727 26.8369C10.872 27.2705 10.3565 27.4873 9.72623 27.4873C9.08532 27.4873 8.57553 27.2698 8.19689 26.8346C7.81823 26.3997 7.62891 25.7676 7.62891 24.9388V10.3231C7.62891 9.49683 7.8167 8.86769 8.1923 8.43546C8.56788 8.00323 9.07919 7.78711 9.72623 7.78711Z" fill="#F6BB00"/>
<path d="M106.541 21.842L107.374 21.3994L106.907 21.5676L106.332 21.7356L105.631 21.8978L104.96 22.0387L104.421 22.1642L103.998 22.2607L103.727 22.332L103.365 22.4675L103.105 22.648L102.967 22.8358L102.919 23.0854L102.979 23.39L103.17 23.6445L103.499 23.8417L104.017 23.9273L104.719 23.8509L105.373 23.598L105.895 23.2297L106.268 22.7374L106.366 22.5161L106.452 22.1148L106.514 21.5215L106.541 20.7589V21.842ZM107.481 20.7754L107.452 21.5884L107.381 22.2656L107.264 22.8121L107.082 23.2252L106.553 23.9227L105.818 24.4419L104.941 24.7809L103.991 24.8841L103.171 24.7488L102.532 24.3647L102.1 23.7891L101.961 23.0879L102.086 22.4434L102.444 21.9558L102.929 21.6193L103.444 21.4262L103.776 21.3388L104.212 21.2395L104.759 21.1123L105.43 20.9712L106.096 20.8172L106.619 20.6645L106.995 20.5288L107.481 20.2709V20.7754ZM107.794 19.7472L106.869 20.2386L106.522 20.3635L106.017 20.511L105.363 20.6623L104.692 20.8034L104.142 20.9315L103.702 21.0317L103.35 21.1243L102.784 21.3366L102.223 21.7252L101.792 22.3124L101.641 23.0885L101.807 23.9221L102.319 24.6047L103.062 25.0512L103.982 25.2029L105.015 25.0907L105.966 24.7231L106.772 24.1538L107.353 23.3878L107.563 22.9108L107.691 22.316L107.765 21.6105L107.794 20.7811V19.7472ZM108.108 20.7865L108.078 21.6329L108.001 22.3661L107.863 23.0093L107.625 23.5504L106.991 24.3848L106.114 25.0044L105.089 25.4008L103.973 25.522L102.953 25.3534L102.106 24.8448L101.513 24.0551L101.322 23.0892L101.498 22.1816L102.003 21.4944L102.638 21.0539L103.256 20.8224L103.628 20.7244L104.073 20.6232L104.624 20.4947L105.296 20.3533L105.939 20.2047L106.426 20.0625L106.743 19.9484L108.108 19.2235V20.7865ZM50.5885 21.842L51.4218 21.3994L50.9551 21.5676L50.3793 21.7356L49.6787 21.8978L49.008 22.0387L48.4688 22.1642L48.046 22.2607L47.7748 22.332L47.4131 22.4675L47.153 22.648L47.015 22.8358L46.9666 23.0854L47.027 23.39L47.2179 23.6445L47.5463 23.8417L48.0644 23.9273L48.7667 23.8509L49.4209 23.598L49.9422 23.2297L50.3159 22.7374L50.4133 22.5161L50.4994 22.1148L50.5619 21.5215L50.5885 20.7589V21.842ZM51.5285 20.7754L51.5001 21.5884L51.4287 22.2656L51.3116 22.8121L51.1297 23.2252L50.6002 23.9227L49.8652 24.4419L48.989 24.7809L48.0382 24.8841L47.2186 24.7488L46.5794 24.3647L46.1475 23.7891L46.0085 23.0879L46.1331 22.4434L46.4915 21.9558L46.9767 21.6193L47.4919 21.4262L47.8238 21.3388L48.2596 21.2395L48.8063 21.1123L49.478 20.9712L50.1434 20.8172L50.6662 20.6645L51.0429 20.5288L51.5285 20.2709V20.7754ZM51.8419 19.7472L50.9166 20.2386L50.5697 20.3635L50.0648 20.511L49.4108 20.6623L48.7392 20.8034L48.1897 20.9315L47.7497 21.0317L47.3974 21.1243L46.8312 21.3366L46.271 21.7252L45.8393 22.3124L45.6891 23.0885L45.8543 23.9221L46.3664 24.6047L47.1094 25.0512L48.0295 25.2029L49.063 25.0907L50.0133 24.7231L50.8195 24.1538L51.4009 23.3878L51.6111 22.9108L51.7385 22.316L51.813 21.6105L51.8419 20.7811V19.7472ZM52.1552 20.7865L52.1256 21.6329L52.0484 22.3661L51.9106 23.0093L51.6722 23.5504L51.0388 24.3848L50.1615 25.0044L49.1371 25.4008L48.021 25.522L47.0002 25.3534L46.1535 24.8448L45.5611 24.0551L45.3697 23.0892L45.5452 22.1816L46.0506 21.4944L46.6857 21.0539L47.3032 20.8224L47.6756 20.7244L48.1201 20.6232L48.672 20.4947L49.3439 20.3533L49.9862 20.2047L50.4735 20.0625L50.7902 19.9484L52.1552 19.2235V20.7865ZM64.7566 16.8284L64.1852 16.9079L63.7 17.1575L63.2629 17.5985L62.9007 18.2516L62.6655 19.1183L62.5787 20.1813L62.6651 21.2894L62.9215 22.148L63.2895 22.7812L63.7295 23.185L64.2302 23.4225L64.7933 23.5038L65.3582 23.4325L65.8642 23.2066L66.3033 22.804L66.684 22.1782L66.9497 21.3276L67.0356 20.1865L66.9376 19.1217L66.6683 18.2477L66.2843 17.6057L65.8174 17.166L65.3051 16.9075L64.7566 16.8284ZM65.5891 15.9904L66.3595 16.379L67.0215 17.0025L67.532 17.8564L67.8644 18.9349L67.979 20.1786L67.8787 21.5084L67.5457 22.5748L67.0345 23.4151L66.3837 24.0119L65.612 24.3563L64.785 24.4607L63.9576 24.3414L63.2015 23.9826L62.5511 23.3857L62.0541 22.5301L61.736 21.4653L61.6358 20.1797L61.7358 18.9525L62.0245 17.8896L62.5062 17.0208L63.1404 16.3808L63.8994 15.9904L64.7588 15.8707L65.5891 15.9904ZM64.7595 15.5514L63.8042 15.6844L62.954 16.1218L62.2537 16.8282L61.7324 17.7688L61.426 18.8974L61.3213 20.179L61.4263 21.524L61.7647 22.6574L62.3049 23.5872L63.0256 24.2484L63.8667 24.6476L64.7823 24.7798L65.6966 24.6644L66.5569 24.2805L67.2782 23.6188L67.833 22.7069L68.1885 21.5687L68.2934 20.1758L68.1732 18.8728L67.8201 17.7259L67.267 16.8013L66.5401 16.1166L65.6836 15.6846L64.7595 15.5514ZM65.7782 15.3789L66.7207 15.8544L67.5128 16.6003L68.1079 17.5953L68.4823 18.8105L68.6079 20.1731L68.498 21.629L68.1202 22.8392L67.5217 23.8225L66.7301 24.5487L65.7812 24.9724L64.7794 25.0986L63.7758 24.9539L62.8497 24.5142L62.0588 23.7888L61.4755 22.7848L61.1165 21.5827L61.0071 20.1783L61.1161 18.8421L61.4404 17.6482L62.0015 16.6358L62.7673 15.8628L63.7091 15.3784L64.7604 15.2323L65.7782 15.3789ZM33.4978 16.627L33.0953 16.6685L32.7471 16.7663L32.4573 16.9307L32.1945 17.1683L31.7176 17.9183L31.6838 18.0486H35.378L35.3464 17.9009L34.8816 17.159L34.6273 16.938L34.3225 16.7702L33.9447 16.6699L33.4978 16.627ZM34.1101 15.7329L34.6723 15.8824L35.1654 16.1537L35.6013 16.5328L36.23 17.5362L36.5427 18.997H30.4665L30.8458 17.5328L31.4723 16.548L31.9065 16.155L32.3856 15.8831L32.9203 15.7334L33.4944 15.6738L34.1101 15.7329ZM33.4933 15.3563L32.8619 15.4215L32.2652 15.5889L31.7229 15.8967L31.2315 16.3411L30.5553 17.4043L30.0607 19.3132H36.9308L36.5246 17.4147L35.8413 16.3242L35.3446 15.8922L34.7889 15.5864L34.1652 15.4209L33.4933 15.3563ZM34.2202 15.1085L34.9055 15.2903L35.5239 15.6309L36.081 16.1155L36.8191 17.2932L37.3191 19.6293H29.6549L30.2646 17.2758L30.9906 16.1342L31.5394 15.6381L32.1446 15.2944L32.8037 15.1097L33.4922 15.0385L34.2202 15.1085ZM115.158 12.1243L116.22 12.3225L117.028 12.9284L117.534 13.7303L117.88 14.5715L119.833 20.6914L121.635 15.1072L121.929 14.3066L122.24 13.5998L122.619 12.9817L123.145 12.493L123.798 12.2078L124.564 12.1285L125.206 12.2297L125.815 12.4874L126.37 12.9024L126.755 13.4541L127.013 14.0557L127.101 14.7617L126.996 15.2045L126.88 15.6607L126.74 16.1467L126.588 16.5288L122.11 28.4603L121.507 29.9229L121.192 30.5598L120.868 31.1322L120.085 32.087L119.037 32.8203L117.709 33.2667L116.113 33.4061L115.311 33.3749L114.591 33.2977L113.949 33.1681L113.361 32.9705L112.802 32.6358L112.362 32.122L112.125 31.4911L112.044 30.7969L112.206 29.8958L112.726 29.121L113.549 28.6622L114.5 28.5278L115.21 28.6276L115.625 28.6859L115.935 28.6583L116.051 28.6242L116.117 28.5716L116.278 28.3546L116.51 27.9443L116.802 27.2492L116.967 26.8695L112.873 16.4809L112.565 15.6266L112.434 14.8556L112.535 14.1472L112.798 13.4727L113.259 12.9262L113.81 12.5043L114.455 12.2286L115.158 12.1243ZM114.711 13.1493L114.285 13.3313L113.909 13.6194L113.615 13.9674L113.449 14.3915L113.386 14.8425L113.477 15.3827L113.751 16.1435L117.985 26.8869L117.665 27.624L117.354 28.3656L117.065 28.8765L116.795 29.2396L116.489 29.483L116.11 29.5948L115.601 29.6402L115.08 29.567L114.5 29.4855L113.851 29.5772L113.378 29.841L113.096 30.2619L112.994 30.8269L113.045 31.2639L113.182 31.6288L113.413 31.8987L113.754 32.1028L114.191 32.2496L114.733 32.3591L115.379 32.4285L116.091 32.456L117.517 32.3316L118.612 31.9635L119.443 31.3818L120.092 30.5905L120.363 30.1122L120.652 29.5282L121.236 28.11L125.712 16.1846L125.85 15.8377L125.973 15.4098L126.084 14.976L126.147 14.7088L126.097 14.3082L125.931 13.9205L125.689 13.5734L125.347 13.3177L124.948 13.149L124.539 13.0845L124.038 13.1364L123.665 13.2997L123.351 13.5914L123.074 14.0435L122.8 14.6643L122.523 15.4188L119.829 23.7699L116.997 14.8994L116.696 14.17L116.328 13.5851L115.835 13.2152L115.141 13.0854L114.711 13.1493ZM115.135 13.4058L115.706 13.5126L116.094 13.8039L116.418 14.3166L116.702 15.0087L119.827 24.796L122.819 15.5227L123.091 14.7836L123.351 14.1917L123.595 13.7947L123.838 13.5684L124.118 13.446L124.531 13.4033L124.862 13.4555L125.19 13.5944L125.462 13.7972L125.656 14.0758L125.792 14.3922L125.829 14.6914L125.78 14.8999L125.671 15.3262L125.553 15.7347L125.42 16.0701L120.945 27.9935L120.367 29.3968L120.086 29.9629L119.833 30.41L119.229 31.1469L118.47 31.6778L117.454 32.0197L116.083 32.1394L115.401 32.113L114.781 32.0464L114.271 31.9434L113.885 31.8135L113.617 31.653L113.455 31.4647L113.351 31.1882L113.31 30.8371L113.392 30.3838L113.595 30.081L113.952 29.8821L114.5 29.8046L115.036 29.8803L115.593 29.9582L116.168 29.9071L116.636 29.7694L117.021 29.4623L117.328 29.0503L117.636 28.5063L117.953 27.7489L118.324 26.8928L114.044 16.031L113.781 15.3014L113.703 14.8382L113.755 14.4728L113.887 14.1323L114.125 13.8507L114.444 13.6068L114.796 13.4562L115.135 13.4058ZM114.881 13.7631L114.602 13.8825L114.342 14.0817L114.16 14.2971L114.06 14.5541L114.02 14.8339L114.085 15.2203L114.337 15.9186L118.664 26.8987L118.241 27.874L117.917 28.6468L117.59 29.2245L117.248 29.6849L116.782 30.0557L116.226 30.2192L115.585 30.2764L114.993 30.1933L114.5 30.1239L114.053 30.1872L113.812 30.3211L113.688 30.506L113.627 30.847L113.658 31.1126L113.729 31.3002L113.82 31.4075L114.016 31.5243L114.352 31.6374L114.828 31.7334L115.424 31.7973L116.076 31.8228L117.39 31.7081L118.328 31.3924L119.015 30.9118L119.575 30.2294L119.81 29.8136L120.082 29.2651L120.654 27.8767L125.128 15.9554L125.257 15.6315L125.369 15.2427L125.476 14.8238L125.511 14.6738L125.487 14.4765L125.381 14.2312L125.235 14.0207L125.035 13.8712L124.776 13.7619L124.523 13.722L124.198 13.7554L124.011 13.8374L123.838 13.9977L123.629 14.3396L123.381 14.9028L123.115 15.6266L119.826 25.8222L116.408 15.1178L116.139 14.4631L115.861 14.023L115.577 13.81L115.129 13.7263L114.881 13.7631ZM105.03 12.1055L106.189 12.1504L107.234 12.2559L108.189 12.4578L109.029 12.7457L109.772 13.129L110.42 13.628L110.955 14.2375L111.362 14.9389L111.657 15.7158L111.845 16.5538L111.967 17.4763L111.996 18.4745V19.5871V20.4267L111.982 21.2381L111.969 22.1613L112.046 23.2412L112.266 24.2454L112.399 24.7021L112.521 25.1345L112.593 25.5132L112.618 25.8881L112.412 26.8025L111.778 27.5863L110.923 28.1154L109.922 28.2974L109.006 28.0872L108.225 27.5493L107.584 26.8002L107.527 26.7063L107.091 27.0434L105.8 27.7342L104.376 28.1446L102.799 28.285L101.329 28.1256L100.009 27.6489L98.8971 26.8621L98.061 25.8328L97.5393 24.6273L97.3745 23.3476L97.4426 22.472L97.6622 21.6543L98.02 20.8976L98.5299 20.2117L99.1456 19.6411L99.8354 19.177L100.614 18.817L101.461 18.5637L101.701 18.5183L102.03 18.4352L102.528 18.332L103.114 18.2193L104.303 17.9682L105.319 17.7326L106.446 17.4352L106.427 17.3126L106.212 16.8693L106.156 16.8187L105.952 16.7304L105.573 16.6475L105.057 16.6245L104.117 16.6984L103.576 16.8702L103.186 17.1678L102.778 17.6732L102.381 18.2672L101.98 18.8076L101.335 19.1829L100.432 19.2843L99.533 19.1264L98.7454 18.6454L98.17 17.8713L97.9874 16.9501L98.0446 16.2756L98.2038 15.6693L98.4659 15.0701L98.843 14.4993L99.3119 13.9753L99.8696 13.5119L100.526 13.0917L101.289 12.7313L103.008 12.2555L105.03 12.1055ZM103.169 13.1947L101.615 13.6246L100.979 13.925L100.422 14.2813L99.9631 14.663L99.5869 15.0832L99.2931 15.5279L99.0936 15.9841L98.9743 16.4387L98.9354 16.8964L99.05 17.4743L99.3882 17.9293L99.8685 18.2227L100.461 18.3266L101.036 18.2622L101.343 18.0831L101.615 17.7171L102.023 17.1075L102.529 16.4802L103.139 16.0148L103.937 15.7612L105.041 15.6745L105.694 15.7036L106.239 15.8226L106.668 16.0082L106.976 16.286L107.336 17.0272L107.5 18.1375L105.543 18.6538L104.504 18.8947L103.298 19.1492L102.711 19.2624L102.239 19.3602L101.902 19.4453L101.682 19.4868L100.945 19.7073L100.295 20.0078L99.7277 20.3893L99.2297 20.8511L98.8282 21.3912L98.5473 21.9852L98.373 22.6346L98.3195 23.3232L98.4542 24.3715L98.8703 25.333L99.5424 26.1602L100.445 26.7989L101.54 27.1947L102.808 27.3323L104.204 27.2078L105.447 26.8494L106.582 26.2424L107.787 25.3107L108.347 26.2404L108.856 26.8357L109.388 27.2024L109.943 27.3298L110.582 27.2137L111.15 26.8621L111.544 26.3754L111.67 25.8129L111.659 25.6338L111.606 25.354L111.496 24.9663L111.355 24.4817L111.113 23.3785L111.028 22.1886L111.042 21.2216L111.056 20.4184V19.5871V18.4885L111.029 17.5533L110.919 16.7216L110.755 15.9915L110.512 15.3509L110.19 14.7969L109.777 14.3261L109.268 13.9347L108.662 13.6217L107.94 13.3744L107.09 13.1947L106.124 13.0971L105.047 13.0553L103.169 13.1947ZM105.052 13.3719L106.103 13.4126L107.042 13.5074L107.857 13.68L108.54 13.9137L109.101 14.2032L109.563 14.5587L109.935 14.9832L110.228 15.4882L110.454 16.0834L110.61 16.7776L110.716 17.5791L110.743 18.4932V19.5871V20.4157L110.729 21.216L110.715 22.1977L110.802 23.4241L111.051 24.5605L111.195 25.0544L111.301 25.4272L111.347 25.6742L111.355 25.7881L111.255 26.2329L110.941 26.6207L110.469 26.9131L109.951 27.0071L109.516 26.9075L109.067 26.5979L108.601 26.0536L107.874 24.8455L106.412 25.9755L105.329 26.5547L104.147 26.8955L102.81 27.0145L101.611 26.8845L100.59 26.5157L99.7575 25.9263L99.1402 25.1664L98.7593 24.2861L98.6344 23.3153L98.6829 22.6888L98.8423 22.0956L99.0974 21.5559L99.4632 21.064L99.9217 20.6388L100.448 20.2849L101.055 20.004L101.755 19.7947L101.969 19.7542L102.309 19.6684L102.771 19.5724L103.36 19.4593L104.571 19.2034L105.618 18.9609L107.851 18.3715L107.638 16.9321L107.23 16.0916L106.839 15.7379L106.335 15.52L105.734 15.389L105.036 15.3576L103.877 15.4489L102.993 15.7296L102.309 16.2512L101.771 16.919L101.36 17.5337L101.131 17.8417L100.936 17.9553L100.471 18.0075L99.9801 17.9214L99.6024 17.6906L99.3432 17.342L99.2514 16.8786L99.2841 16.4929L99.3902 16.0889L99.5688 15.6806L99.8347 15.2779L100.18 14.8922L100.606 14.5379L101.13 14.203L101.724 13.9223L103.222 13.5077L105.052 13.3719ZM103.275 13.8207L101.833 14.2201L101.281 14.4807L100.791 14.7944L100.397 15.1214L100.083 15.4726L99.8445 15.8332L99.6867 16.1939L99.5941 16.5473L99.5674 16.8607L99.6366 17.2098L99.8165 17.4519L100.092 17.6202L100.48 17.6881L100.836 17.6484L100.919 17.6001L101.104 17.3503L101.519 16.7304L102.09 16.022L102.847 15.4446L103.817 15.1363L105.031 15.041L105.774 15.0742L106.43 15.2174L107.009 15.4678L107.485 15.8969L107.941 16.837L108.203 18.6054L105.692 19.268L104.639 19.5124L103.421 19.7694L102.832 19.8825L102.378 19.9769L102.036 20.0632L101.829 20.1024L101.165 20.3007L100.601 20.5618L100.116 20.8881L99.6964 21.277L99.3669 21.7205L99.1373 22.2058L98.9932 22.7428L98.9493 23.3071L99.0643 24.201L99.4099 24.9997L99.9725 25.6923L100.736 26.2323L101.682 26.5739L102.814 26.6968L104.09 26.5832L105.211 26.2598L106.242 25.7086L107.96 24.38L108.855 25.8671L109.277 26.3601L109.643 26.6123L109.958 26.6846L110.355 26.6126L110.732 26.3793L110.965 26.0907L111.039 25.763L111.036 25.7144L110.995 25.5004L110.894 25.1422L110.747 24.6393L110.492 23.4697L110.401 22.2069L110.416 21.2106L110.43 20.413V19.5871V18.498L110.403 17.6048L110.301 16.8334L110.153 16.1753L109.945 15.6255L109.68 15.1697L109.348 14.7913L108.933 14.4717L108.417 14.2057L107.775 13.9853L106.995 13.8204L106.081 13.7283L105.058 13.6885L103.275 13.8207ZM49.078 12.1055L50.2369 12.1504L51.2817 12.2559L52.2362 12.4578L53.0764 12.7457L53.8192 13.129L54.4674 13.628L55.0025 14.2375L55.4094 14.9389L55.7044 15.7158L55.8924 16.5538L56.0143 17.4763L56.0439 18.4745V19.5871V20.4267L56.0298 21.2381L56.0161 22.1613L56.0936 23.2412L56.3133 24.2454L56.4465 24.7021L56.5689 25.1345L56.6403 25.5132L56.6652 25.8881L56.4593 26.8025L55.8254 27.5863L54.9709 28.1154L53.9694 28.2974L53.0533 28.0872L52.2725 27.5493L51.6315 26.8002L51.5748 26.7063L51.1389 27.0434L49.8475 27.7342L48.4236 28.1446L46.8462 28.285L45.3764 28.1256L44.0562 27.6489L42.9448 26.8621L42.1086 25.8328L41.5869 24.6273L41.4222 23.3476L41.4902 22.472L41.7098 21.6543L42.0676 20.8976L42.5775 20.2117L43.1932 19.6411L43.883 19.177L44.6614 18.817L45.5087 18.5637L45.7491 18.5183L46.0781 18.4352L46.5754 18.332L47.1618 18.2193L48.3502 17.9682L49.3665 17.7326L50.4932 17.4352L50.475 17.3126L50.26 16.8693L50.2038 16.8187L49.9995 16.7304L49.6203 16.6475L49.1049 16.6245L48.1647 16.6984L47.6237 16.8702L47.2336 17.1678L46.8258 17.6732L46.429 18.2672L46.0273 18.8076L45.3825 19.1829L44.4792 19.2843L43.5806 19.1264L42.793 18.6454L42.2176 17.8713L42.035 16.9501L42.0923 16.2756L42.2514 15.6693L42.5135 15.0701L42.8906 14.4993L43.3595 13.9753L43.9172 13.5119L44.5739 13.0917L45.3371 12.7313L47.0557 12.2555L49.078 12.1055ZM47.2162 13.1947L45.6629 13.6246L45.0266 13.925L44.4698 14.2813L44.0105 14.663L43.6345 15.0832L43.3407 15.5279L43.1413 15.9841L43.022 16.4387L42.983 16.8964L43.0976 17.4743L43.4358 17.9293L43.9161 18.2227L44.5085 18.3266L45.0833 18.2622L45.3908 18.0831L45.6629 17.7171L46.0703 17.1075L46.5763 16.4802L47.1864 16.0148L47.9847 15.7612L49.089 15.6745L49.7414 15.7036L50.2866 15.8226L50.7156 16.0082L51.0234 16.286L51.3833 17.0272L51.5475 18.1375L49.5908 18.6538L48.5519 18.8947L47.346 19.1492L46.7582 19.2624L46.2869 19.3602L45.9498 19.4453L45.7294 19.4868L44.9924 19.7073L44.3424 20.0078L43.7753 20.3893L43.2773 20.8511L42.8758 21.3912L42.5949 21.9852L42.4206 22.6346L42.3671 23.3232L42.5018 24.3715L42.9179 25.333L43.59 26.1602L44.4924 26.7989L45.5879 27.1947L46.8552 27.3323L48.2517 27.2078L49.4945 26.8494L50.6295 26.2424L51.8347 25.3107L52.3942 26.2404L52.9038 26.8357L53.4358 27.2024L53.9911 27.3298L54.6301 27.2137L55.1979 26.8621L55.5913 26.3754L55.718 25.8129L55.7064 25.6338L55.6533 25.354L55.5437 24.9663L55.4024 24.4817L55.1609 23.3785L55.0757 22.1886L55.0898 21.2216L55.1039 20.4184V19.5871V18.4885L55.0761 17.5533L54.9662 16.7216L54.8024 15.9915L54.5591 15.3509L54.2377 14.7969L53.8244 14.3261L53.3163 13.9347L52.7093 13.6217L51.9878 13.3744L51.138 13.1947L50.172 13.0971L49.0944 13.0553L47.2162 13.1947ZM49.1 13.3719L50.1503 13.4126L51.0901 13.5074L51.905 13.68L52.5871 13.9137L53.1485 14.2032L53.6102 14.5587L53.9828 14.9832L54.2758 15.4882L54.5018 16.0834L54.6576 16.7776L54.7635 17.5791L54.7905 18.4932V19.5871V20.4157L54.7764 21.216L54.7623 22.1977L54.8501 23.4241L55.0987 24.5605L55.2426 25.0544L55.3483 25.4272L55.3948 25.6742L55.4024 25.7881L55.3022 26.2329L54.9886 26.6207L54.5166 26.9131L53.9985 27.0071L53.5634 26.9075L53.1142 26.5979L52.6485 26.0536L51.9213 24.8455L50.4596 25.9755L49.3768 26.5547L48.1944 26.8955L46.8581 27.0145L45.6584 26.8845L44.6376 26.5157L43.8051 25.9263L43.1878 25.1664L42.8069 24.2861L42.682 23.3153L42.7306 22.6888L42.8899 22.0956L43.1451 21.5559L43.5108 21.064L43.9694 20.6388L44.4955 20.2849L45.1027 20.004L45.803 19.7947L46.0168 19.7542L46.3565 19.6684L46.8191 19.5724L47.4073 19.4593L48.619 19.2034L49.6655 18.9609L51.8989 18.3715L51.6861 16.9321L51.2779 16.0916L50.8864 15.7379L50.3824 15.52L49.7817 15.389L49.0838 15.3576L47.9247 15.4489L47.0407 15.7296L46.357 16.2512L45.8182 16.919L45.4076 17.5337L45.1786 17.8417L44.9834 17.9553L44.5181 18.0075L44.0278 17.9214L43.65 17.6906L43.3908 17.342L43.299 16.8786L43.3317 16.4929L43.4378 16.0889L43.6164 15.6806L43.8823 15.2779L44.2276 14.8922L44.654 14.5379L45.1777 14.203L45.7717 13.9223L47.2694 13.5077L49.1 13.3719ZM47.3229 13.8207L45.8802 14.2201L45.3285 14.4807L44.8382 14.7944L44.4447 15.1214L44.1303 15.4726L43.8921 15.8332L43.7344 16.1939L43.6417 16.5473L43.6151 16.8607L43.6842 17.2098L43.8642 17.4519L44.1397 17.6202L44.528 17.6881L44.8836 17.6484L44.9664 17.6001L45.152 17.3503L45.5665 16.7304L46.1378 16.022L46.8948 15.4446L47.8648 15.1363L49.0787 15.041L49.822 15.0742L50.478 15.2174L51.057 15.4678L51.5323 15.8969L51.9887 16.837L52.2503 18.6054L49.7401 19.268L48.6861 19.5124L47.4688 19.7694L46.88 19.8825L46.4261 19.9769L46.0837 20.0632L45.8764 20.1024L45.2131 20.3007L44.6486 20.5618L44.1634 20.8881L43.744 21.277L43.4145 21.7205L43.1849 22.2058L43.0408 22.7428L42.9969 23.3071L43.1119 24.201L43.4575 24.9997L44.0202 25.6923L44.7831 26.2323L45.7292 26.5739L46.8612 26.6968L48.1371 26.5832L49.2591 26.2598L50.2897 25.7086L52.0079 24.38L52.9027 25.8671L53.3246 26.3601L53.691 26.6123L54.0056 26.6846L54.4029 26.6126L54.7794 26.3793L55.013 26.0907L55.0866 25.763L55.0835 25.7144L55.043 25.5004L54.9418 25.1422L54.795 24.6393L54.5392 23.4697L54.4488 22.2069L54.4633 21.2106L54.4772 20.413V19.5871V18.498L54.4508 17.6048L54.3487 16.8334L54.201 16.1753L53.9924 15.6255L53.7279 15.1697L53.3958 14.7913L52.9808 14.4717L52.4647 14.2057L51.8222 13.9853L51.0422 13.8204L50.1286 13.7283L49.1053 13.6885L47.3229 13.8207ZM33.6067 12.1046L34.7202 12.1669L35.7441 12.3548L36.7034 12.6721L37.5818 13.1154L38.3802 13.6524L39.0617 14.2601L39.653 14.9534L40.1272 15.7192L40.5032 16.5093L40.7725 17.3246L40.9323 18.147L40.9806 18.9909L40.9132 19.7883L40.7051 20.5137L40.2982 21.1403L39.7067 21.5825L38.5218 21.9754L37.1387 22.0994H31.5622L31.5459 21.9743L31.8008 22.645L32.1909 23.2139L32.6408 23.5958L33.1594 23.827L33.7565 23.8997L34.6036 23.7873L35.3276 23.4501L36.0977 22.8611L37.1608 21.8765L37.777 21.5335L38.5585 21.4269L39.388 21.5699L40.1194 21.9949L40.6297 22.7205L40.7805 23.6113L40.6413 24.4135L40.2698 25.2167L39.6881 26.0049L38.9133 26.7216L37.929 27.3623L36.7428 27.8505L35.3903 28.1762L33.8552 28.2834L32.1209 28.1466L30.5632 27.7419L29.1639 27.0441L27.9943 26.071L27.0509 24.8656L26.3761 23.4718L25.991 21.9021L25.8551 20.1822L25.9769 18.5248L26.3761 16.9906L27.0133 15.5952L27.9117 14.3866L29.0529 13.395L30.4253 12.6787L31.9564 12.2575L33.6067 12.1046ZM32.1242 13.1942L30.7686 13.5673L29.5827 14.1863L28.6024 15.0381L27.8253 16.0834L27.2644 17.3119L26.9079 18.6818L26.798 20.1795L26.9218 21.7494L27.2644 23.1459L27.8513 24.3577L28.6697 25.4037L29.678 26.2424L30.8922 26.8481L32.276 27.2074L33.8594 27.3325L35.2477 27.2354L36.4543 26.9447L37.4928 26.5175L38.3367 25.968L38.9874 25.3662L39.4587 24.7278L39.7369 24.1262L39.8264 23.6093L39.7391 23.0931L39.4719 22.7132L39.0643 22.4763L38.542 22.3862L38.0771 22.4497L37.7137 22.652L36.7009 23.5899L35.8142 24.2683L34.8679 24.7088L33.7616 24.8556L32.9076 24.7518L32.1383 24.4085L31.4897 23.8582L30.9636 23.0913L30.6283 22.2092L30.4909 21.151H37.0971L38.3311 21.0403L39.2691 20.7293L39.6039 20.4789L39.8414 20.1131L39.9846 19.6147L40.0381 18.9781L39.9976 18.266L39.8616 17.5669L39.6301 16.8661L39.3025 16.1771L38.8938 15.5175L38.3909 14.9279L37.8054 14.4058L37.1091 13.9372L36.3448 13.5517L35.5127 13.2764L34.6096 13.1107L33.6238 13.0556L32.1242 13.1942ZM33.6294 13.3724L34.5727 13.4252L35.4355 13.5835L36.2253 13.8448L36.9516 14.2113L37.6138 14.6569L38.1673 15.1503L38.6407 15.7054L39.0274 16.3298L39.3392 16.9849L39.5581 17.6475L39.6859 18.3058L39.7241 18.9738L39.6749 19.5566L39.5536 19.9796L39.3725 20.2585L39.1232 20.4448L38.2674 20.7284L37.083 20.8348H30.1337L30.3226 22.2873L30.6845 23.2398L31.2559 24.0729L31.9707 24.6795L32.8234 25.06L33.7632 25.1743L34.9559 25.016L35.9764 24.5408L36.9019 23.8329L37.8978 22.9106L38.1772 22.755L38.5364 22.706L38.9565 22.7785L39.2561 22.9526L39.4424 23.2173L39.5084 23.6086L39.4354 24.0305L39.1881 24.565L38.7539 25.1535L38.1445 25.7169L37.3475 26.2359L36.3583 26.643L35.2003 26.9217L33.8608 27.0154L32.3275 26.8944L31.0018 26.55L29.8494 25.975L28.8949 25.1813L28.118 24.1883L27.5605 23.0375L27.2322 21.6984L27.1122 20.1786L27.2183 18.7339L27.5605 17.419L28.0959 16.2462L28.8327 15.2551L29.7592 14.45L30.883 13.8636L32.1802 13.5065L33.6294 13.3724ZM32.2361 13.8188L30.9976 14.1596L29.9358 14.7138L29.063 15.4723L28.3665 16.4091L27.8566 17.526L27.5285 18.7861L27.4265 20.1776L27.5424 21.6475L27.8569 22.9289L28.3848 24.0192L29.12 24.9588L30.0206 25.7079L31.1115 26.2521L32.3792 26.5814L33.8621 26.6984L35.1526 26.6083L36.2622 26.3411L37.2022 25.9543L37.9525 25.4658L38.5203 24.9405L38.9177 24.4019L39.1337 23.9347L39.1906 23.6079L39.1454 23.3415L39.0402 23.192L38.8486 23.0806L38.531 23.026L38.2772 23.0605L38.082 23.1692L37.1029 24.0759L36.1385 24.8136L35.0441 25.3233L33.765 25.4931L32.7395 25.3683L31.8033 24.9503L31.0222 24.2877L30.4054 23.3884L30.0166 22.3654L29.7767 20.5186H37.0691L38.2038 20.4168L38.9773 20.1605L39.1411 20.0381L39.2658 19.8461L39.3654 19.4988L39.4101 18.9695L39.3743 18.3455L39.2544 17.7283L39.048 17.1037L38.7526 16.4825L38.3875 15.8933L37.944 15.373L37.4225 14.908L36.7938 14.4853L36.1058 14.1379L35.3583 13.8907L34.5358 13.7398L33.6349 13.6895L32.2361 13.8188ZM75.5872 6.99168L76.3083 7.04904L76.958 7.25409L77.4882 7.63303L77.874 8.1303L78.2997 9.1377L78.6135 10.3145L80.1119 17.6044L81.7099 11.0434L82.0118 9.97033L82.294 9.09977L82.7311 8.34122L83.3903 7.63935L84.3412 7.14999L85.493 6.9892L86.6807 7.16805L87.601 7.67977L88.2416 8.38141L88.6196 9.07492L88.7756 9.47735L88.9123 9.93668L89.2252 11.0416L90.8451 17.6177L92.3333 10.3414L92.5078 9.59274L92.6983 8.92001L93.0044 8.26557L93.5286 7.61948L94.3093 7.14254L95.333 6.98672L96.4001 7.17889L97.3014 7.77214L97.9363 8.67273L98.127 9.73163L98.0415 10.595L97.8056 11.6658L94.7522 24.1739L94.4529 25.2951L94.19 26.1686L93.803 26.9145L93.1716 27.6265L92.256 28.1267L91.1157 28.2886L90.013 28.1427L89.1039 27.6457L88.4817 26.9811L88.0708 26.2781L87.8036 25.4378L87.4889 24.3694L85.4869 16.361L83.4603 24.4272L83.1582 25.443L82.8918 26.2494L82.4821 26.9687L81.8449 27.6299L80.9429 28.1418L79.8496 28.2866L78.9535 28.196L78.1802 27.8916L77.5591 27.4217L77.0943 26.8027L76.7693 26.1124L76.5397 25.3549L76.3557 24.6845L76.2129 24.1802L73.1432 11.6633L72.9214 10.6187L72.8365 9.72892L73.027 8.69192L73.6418 7.79133L74.5601 7.18002L75.5872 6.99168ZM74.9173 8.07858L74.3121 8.48145L73.9146 9.06341L73.7848 9.7707L73.852 10.4735L74.0592 11.4499L77.1214 23.9358L77.2608 24.4277L77.4421 25.0898L77.648 25.7682L77.902 26.3077L78.2286 26.7426L78.6415 27.0552L79.175 27.2652L79.8351 27.3318L80.6403 27.2252L81.2656 26.8704L81.7258 26.3928L82.03 25.8592L82.262 25.1569L82.5541 24.1743L85.4892 12.4921L88.3955 24.1181L88.7017 25.1578L88.9338 25.8874L89.2377 26.4073L89.684 26.8842L90.3078 27.2252L91.1112 27.3314L91.9575 27.2114L92.5801 26.8711L93.0244 26.3698L93.3162 25.8077L93.5492 25.034L93.8417 23.9372L96.8905 11.4495L97.1118 10.4443L97.1785 9.77001L97.0489 9.05031L96.6387 8.46836L96.0467 8.07881L95.3202 7.94783L94.6354 8.05216L94.1537 8.34641L93.8052 8.77615L93.581 9.2549L93.4178 9.83167L93.2513 10.5457L90.9304 21.8948L88.3168 11.2864L88.0101 10.2034L87.8864 9.78695L87.7664 9.47802L87.4728 8.9392L87.0133 8.43584L86.375 8.08106L85.4878 7.94738L84.627 8.06774L83.9612 8.41009L83.4887 8.91346L83.1566 9.48999L82.9109 10.2474L82.6188 11.2862L80.0345 21.8975L77.6988 10.5342L77.409 9.44844L77.0578 8.61672L76.8326 8.32676L76.5359 8.11471L76.1288 7.98622L75.635 7.94692L74.9173 8.07858ZM75.6512 8.26534L76.069 8.29854L76.3953 8.40151L76.6142 8.55801L76.7856 8.77887L77.1122 9.55209L77.3937 10.6074L80.0085 23.3286L82.9218 11.3671L83.2106 10.3398L83.444 9.62007L83.7414 9.10405L84.1517 8.66708L84.7224 8.37351L85.4862 8.2667L86.2732 8.38525L86.8175 8.68809L87.2165 9.12529L87.4822 9.61239L87.5898 9.89016L87.7093 10.2921L88.0139 11.368L90.9586 23.3205L93.5573 10.6139L93.7211 9.91138L93.8753 9.36669L94.072 8.94621L94.3621 8.58872L94.7441 8.35545L95.316 8.26827L95.929 8.37871L96.4178 8.70028L96.753 9.17609L96.8625 9.78289L96.8018 10.394L96.5852 11.3774L93.5382 23.8582L93.2477 24.9469L93.025 25.6873L92.765 26.1885L92.3829 26.6193L91.8579 26.9064L91.1097 27.0125L90.406 26.9192L89.8772 26.6304L89.4897 26.2162L89.2214 25.7574L89.0012 25.0645L88.6977 24.0345L85.4898 11.2024L82.252 24.0901L81.9633 25.0614L81.7426 25.7291L81.4738 26.2009L81.0727 26.6173L80.5396 26.9197L79.8304 27.0136L79.2489 26.9549L78.7952 26.7763L78.4517 26.5164L78.171 26.1426L77.9409 25.6535L77.7431 25.0013L77.5623 24.3421L77.4242 23.8545L74.3647 11.379L74.1619 10.4249L74.1011 9.78447L74.2105 9.18739L74.5355 8.71135L75.0364 8.37802L75.6512 8.26534ZM75.1554 8.67747L74.7588 8.94146L74.5066 9.31114L74.4171 9.79847L74.4721 10.3766L74.67 11.3079L77.727 23.773L77.864 24.2567L78.0439 24.9128L78.2337 25.5388L78.4403 25.9775L78.675 26.2901L78.949 26.4976L79.323 26.6446L79.8254 26.6954L80.4389 26.6144L80.8796 26.3641L81.2218 26.0089L81.4552 25.599L81.6645 24.9658L81.9501 24.0058L85.4907 9.91296L88.9998 23.9507L89.3006 24.9713L89.509 25.6271L89.7415 26.025L90.0705 26.3763L90.5043 26.6135L91.1083 26.6934L91.7583 26.601L92.1858 26.3675L92.5056 26.0069L92.7339 25.567L92.9465 24.8599L93.235 23.7793L96.2801 11.3054L96.4919 10.3438L96.5462 9.79576L96.4574 9.30188L96.1969 8.93243L95.8112 8.6786L95.3117 8.58872L94.8527 8.6585L94.5704 8.83103L94.339 9.11625L94.1696 9.47825L94.0243 9.9911L93.8632 10.6821L90.987 24.7463L87.7114 11.4497L87.4088 10.3811L87.2935 9.99336L87.1977 9.74675L86.9605 9.31114L86.6216 8.94011L86.1711 8.68966L85.4845 8.58623L84.8177 8.67928L84.3421 8.92407L83.9939 9.29488L83.7316 9.75015L83.5105 10.4321L83.2246 11.4479L79.9828 24.7594L77.0889 10.6808L76.8154 9.65575L76.5135 8.94124L76.3958 8.78926L76.2545 8.68831L76.0093 8.61108L75.6671 8.58375L75.1554 8.67747ZM69.878 6.98265L70.9932 7.19989L71.886 7.84914L72.3983 8.84345L72.5498 9.964V25.3188L72.3806 26.4798L71.8305 27.4709L70.9426 28.096L69.8766 28.295L68.814 28.0928L67.9333 27.4316L67.3903 26.4531L67.2202 25.3206V28.295L68.2722 26.3357L67.5526 27.0439L66.6862 27.5881L65.7691 27.9779L64.7915 28.2042L63.708 28.2846L62.3018 28.1251L60.984 27.655L59.8104 26.8926L58.8258 25.8671L58.0459 24.6395L57.4756 23.2396L57.1403 21.7024L57.0354 20.0679L57.1403 18.3742L57.4772 16.8598L58.0546 15.49L58.8637 14.3215L59.8719 13.385L61.042 12.7057L62.3517 12.2866L63.7832 12.1597L65.3687 12.3164L66.75 12.7755L67.8816 13.5765L67.2202 12.7008V10.1519L67.3682 8.95863L67.8637 7.92005L68.7399 7.20441L69.878 6.98265ZM69.1488 8.09077L68.6191 8.52346L68.2818 9.23029L68.1603 10.2111V15.5107L67.2223 14.2685L66.3239 13.6325L65.1735 13.2502L63.7785 13.1122L62.5373 13.2222L61.4227 13.5788L60.4314 14.1544L59.5756 14.9493L58.8813 15.952L58.3757 17.1516L58.0738 18.5086L57.9774 20.0668L58.0738 21.569L58.376 22.9553L58.8831 24.1996L59.5664 25.2752L60.4102 26.1541L61.4008 26.7977L62.5135 27.1947L63.7264 27.3323L64.6511 27.2636L65.4795 27.0719L66.2527 26.7433L66.9691 26.2932L67.5134 25.7574L68.1603 24.5526V25.249L68.2941 26.1404L68.6555 26.7916L69.2012 27.2013L69.8782 27.3302L70.5716 27.2006L71.1157 26.8176L71.4758 26.1688L71.6098 25.2495V10.0284L71.489 9.13477L71.155 8.48665L70.6116 8.09145L69.878 7.94873L69.1488 8.09077ZM69.878 8.27076L70.4845 8.38886L70.9113 8.69937L71.1859 9.23187L71.2965 10.0498V25.2262L71.1741 26.0652L70.8775 26.5997L70.4478 26.9023L69.8789 27.0087L69.3303 26.9041L68.8961 26.5782L68.5953 26.036L68.4736 25.2253V23.3051L67.2605 25.5645L66.7747 26.043L66.1084 26.4617L65.3828 26.7697L64.6041 26.9502L63.7324 27.0148L62.5843 26.8847L61.5397 26.5118L60.61 25.908L59.8133 25.0781L59.162 24.053L58.6761 22.8605L58.3849 21.5247L58.2911 20.0663L58.3849 18.5533L58.6752 17.2489L59.1568 16.1062L59.8128 15.1587L60.6179 14.4107L61.5496 13.8699L62.599 13.5343L63.7769 13.4297L65.1084 13.5614L66.182 13.9182L67.0025 14.499L68.4736 16.4472V10.2307L68.5864 9.32085L68.8708 8.72444L69.2851 8.38616L69.878 8.27076ZM69.4214 8.68154L69.1226 8.92543L68.891 9.41141L68.7869 10.2503V17.384L66.7827 14.7298L66.0399 14.2039L65.0433 13.8726L63.7752 13.7473L62.6608 13.8462L61.6767 14.161L60.8045 14.6673L60.0503 15.368L59.4324 16.2603L58.9747 17.3462L58.696 18.598L58.6052 20.0661L58.696 21.4802L58.9762 22.7658L59.4411 23.9065L60.0601 24.8807L60.8101 25.6618L61.6785 26.2262L62.655 26.5746L63.7384 26.6972L64.5574 26.6365L65.2863 26.4678L65.9638 26.1799L66.5802 25.7926L67.0079 25.3719L68.7869 22.0577V25.2014L68.8966 25.9319L69.137 26.3648L69.4595 26.6069L69.8793 26.6869L70.324 26.6037L70.6392 26.382L70.8726 25.9617L70.9832 25.2032V10.0713L70.8827 9.32898L70.6678 8.91188L70.3574 8.68605L69.878 8.59256L69.4214 8.68154ZM9.7292 6.98265L10.9074 7.21276L11.8767 7.89137L12.4843 8.98346L12.6667 10.272V14.6047H18.6117V10.272L18.7932 8.98889L19.3794 7.90176L20.3201 7.21502L21.4919 6.98242L22.6714 7.21276L23.6407 7.89137L24.2482 8.98346L24.4308 10.272V25.0067L24.2482 26.2953L23.6434 27.3824L22.6716 28.0827L21.4933 28.2938L20.3066 28.0813L19.3626 27.372L18.7769 26.2853L18.6117 25.0015V19.7565H12.6667V25.0067L12.4843 26.2953L11.8794 27.3824L10.9077 28.0827L9.7292 28.2938L8.54268 28.0813L7.5986 27.372L7.01289 26.2853L6.84766 25.0015V10.2772L7.01289 8.9934L7.60131 7.90176L8.5431 7.21435L9.7292 6.98265ZM8.92573 8.10568L8.32516 8.54401L7.92248 9.29104L7.78766 10.3384V24.9403L7.92248 25.9877L8.32569 26.7356L8.9258 27.1866L9.7292 27.3305L10.5342 27.1864L11.1624 26.7336L11.5786 25.9857L11.7267 24.9392V18.808H19.5517V24.9403L19.6865 25.9877L20.0898 26.7356L20.6898 27.1866L21.4933 27.3305L22.2983 27.1864L22.9263 26.7336L23.3426 25.9857L23.4908 24.9392V10.3395L23.3426 9.29307L22.927 8.54604L22.2983 8.10591L21.4935 7.94873L20.7039 8.10545L20.1032 8.54401L19.6999 9.29194L19.5517 10.3395V15.5532H11.7267V10.3395L11.5786 9.29307L11.1629 8.54604L10.5343 8.10591L9.7292 7.94873L8.92573 8.10568ZM9.7292 8.27076L10.4099 8.40377L10.925 8.76441L11.2767 9.39627L11.4134 10.3619V15.8693H19.8651V10.3619L20.0023 9.39311L20.3445 8.75809L20.8319 8.40219L21.494 8.27098L22.1739 8.40377L22.6891 8.76441L23.0407 9.39627L23.1775 10.3619V24.9168L23.0407 25.8825L22.6873 26.5173L22.1737 26.8876L21.4933 27.0093L20.8176 26.8883L20.3319 26.5236L19.9897 25.8883L19.8651 24.9198V18.4919H11.4134V24.9168L11.2767 25.8825L10.9234 26.5173L10.4098 26.8876L9.7292 27.0093L9.0535 26.8883L8.56806 26.5236L8.22567 25.8883L8.10099 24.9198V10.359L8.22567 9.39018L8.56642 8.75809L9.05325 8.40264L9.7292 8.27076ZM9.1808 8.69983L8.80771 8.97217L8.52887 9.48954L8.41432 10.3793V24.8994L8.52887 25.7892L8.81042 26.3115L9.18121 26.5902L9.7292 26.6882L10.2853 26.5886L10.6844 26.3011L10.9748 25.7793L11.1 24.8943V18.1757H20.1784V24.8994L20.2928 25.7892L20.5743 26.3115L20.9452 26.5902L21.4933 26.6882L22.0492 26.5886L22.4483 26.3011L22.7388 25.7793L22.8641 24.8943V10.3845L22.7388 9.49948L22.4512 8.98256L22.0494 8.70141L21.4944 8.59301L20.9597 8.69915L20.5857 8.97217L20.3044 9.49406L20.1784 10.3845V16.1855H11.1V10.3845L10.9748 9.49948L10.6871 8.98256L10.2855 8.70141L9.7292 8.59279L9.1808 8.69983Z" fill="#BF9000"/>
<path fill-rule="evenodd" clip-rule="evenodd" d="M154.049 16.792C153.341 16.792 152.758 17.0404 152.3 17.5377C151.841 18.0347 151.562 18.7025 151.463 19.541H156.658C156.586 18.689 156.32 18.0178 155.861 17.5275C155.402 17.0371 154.798 16.792 154.049 16.792ZM167.044 14.1372C167.867 14.1372 168.617 14.2262 169.292 14.4037C169.968 14.5814 170.533 14.821 170.989 15.1225C171.445 15.424 171.796 15.7652 172.044 16.1464C172.291 16.5276 172.415 16.9054 172.415 17.28C172.415 17.7093 172.271 18.0625 171.982 18.3396C171.694 18.6167 171.294 18.7554 170.781 18.7554C170.402 18.7554 170.085 18.6515 169.832 18.4435C169.578 18.2357 169.301 17.9404 169 17.5574C168.78 17.2712 168.526 17.0445 168.237 16.8774C167.947 16.7103 167.549 16.6267 167.043 16.6267C166.526 16.6267 166.11 16.7297 165.793 16.9357C165.475 17.1416 165.317 17.3846 165.317 17.6646C165.317 17.925 165.432 18.1438 165.661 18.3209C165.89 18.4979 166.229 18.6533 166.677 18.7867C167.125 18.9202 167.759 19.0878 168.579 19.289C169.57 19.5333 170.388 19.8289 171.032 20.176C171.675 20.5231 172.168 20.94 172.51 21.4267C172.852 21.9133 173.023 22.4697 173.023 23.096C173.023 24.0124 172.799 24.8014 172.35 25.4631C171.901 26.1247 171.248 26.6225 170.389 26.9567C169.53 27.2907 168.496 27.4578 167.285 27.4578C166.127 27.4578 165.129 27.2769 164.292 26.9153C163.455 26.5538 162.833 26.0951 162.424 25.5392C162.016 24.983 161.812 24.415 161.812 23.8349C161.812 23.4218 161.956 23.0693 162.246 22.7771C162.536 22.4851 162.901 22.339 163.341 22.339C163.734 22.339 164.035 22.4354 164.244 22.628C164.453 22.8209 164.654 23.1007 164.847 23.4677C165.126 23.9444 165.47 24.3096 165.878 24.5636C166.287 24.8177 166.855 24.9448 167.582 24.9448C168.16 24.9448 168.623 24.8226 168.97 24.5787C169.318 24.3348 169.491 24.0722 169.491 23.791C169.491 23.3256 169.307 22.9801 168.939 22.7547C168.57 22.5294 167.882 22.2945 166.874 22.0499C165.865 21.797 165.009 21.5156 164.304 21.2058C163.599 20.8957 163.031 20.4811 162.598 19.9613C162.166 19.4414 161.949 18.7951 161.949 18.0226C161.949 17.3397 162.149 16.6979 162.548 16.0969C162.948 15.4958 163.53 15.0188 164.297 14.6663C165.063 14.3136 165.979 14.1372 167.044 14.1372ZM154.152 14.1137C155.419 14.1137 156.511 14.3859 157.425 14.9301C158.34 15.4746 159.025 16.1782 159.481 17.0411C159.936 17.904 160.164 18.7811 160.164 19.6727C160.164 20.5606 159.908 21.1383 159.396 21.4054C158.884 21.6726 158.198 21.8063 157.339 21.8063H151.461C151.467 22.3318 151.6 22.8518 151.861 23.3663C152.123 23.8807 152.463 24.2646 152.884 24.5178C153.304 24.7709 153.772 24.8976 154.289 24.8976C154.646 24.8976 154.967 24.8563 155.254 24.7738C155.54 24.6914 155.818 24.5625 156.087 24.387C156.356 24.2113 156.623 24.0065 156.888 23.7719C157.152 23.5374 157.463 23.2502 157.82 22.9099C158.023 22.7337 158.302 22.6459 158.658 22.6459C159.039 22.6459 159.355 22.7577 159.605 22.981C159.856 23.2046 159.981 23.511 159.981 23.9004C159.981 24.2271 159.861 24.597 159.621 25.0098C159.382 25.4229 159.027 25.8138 158.557 26.183C158.087 26.552 157.5 26.8569 156.798 27.0971C156.095 27.3376 155.29 27.4578 154.381 27.4578C152.304 27.4578 150.684 26.856 149.522 25.6525C148.36 24.4489 147.779 22.8227 147.779 20.774C147.779 19.8097 147.921 18.9162 148.205 18.0932C148.489 17.2703 148.908 16.5599 149.461 15.9619C150.014 15.3639 150.692 14.9064 151.495 14.5893C152.299 14.2723 153.184 14.1137 154.152 14.1137ZM177.76 9.84269C178.22 9.84269 178.633 10.0154 179 10.361C179.253 10.599 179.412 10.8808 179.476 11.2067C179.54 11.5326 179.572 11.9639 179.572 12.5009V14.4204H180.473C180.978 14.4204 181.373 14.5496 181.657 14.8079C181.941 15.0665 182.083 15.3935 182.083 15.7891C182.083 16.3085 181.887 16.6685 181.494 16.8688C181.101 17.0693 180.573 17.1694 179.912 17.1694H179.572V22.7428C179.572 23.2366 179.588 23.6007 179.618 23.8346C179.648 24.0686 179.717 24.2454 179.824 24.3646C179.931 24.4839 180.117 24.5435 180.382 24.5435C180.557 24.5435 180.801 24.5108 181.115 24.4453C181.428 24.3796 181.677 24.3468 181.861 24.3468C182.182 24.3468 182.467 24.473 182.717 24.7255C182.967 24.978 183.092 25.2853 183.092 25.6476C183.092 26.253 182.786 26.706 182.173 27.0068C181.561 27.3074 180.719 27.4578 179.648 27.4578C178.621 27.4578 177.835 27.278 177.289 26.9183C176.744 26.5585 176.388 26.0658 176.221 25.4405C176.054 24.8152 175.971 24.0008 175.971 22.9977V17.1694H175.792C175.28 17.1694 174.881 17.0402 174.597 16.7814C174.313 16.5226 174.171 16.192 174.171 15.7891C174.171 15.3856 174.32 15.0566 174.618 14.8021C174.917 14.5478 175.331 14.4204 175.861 14.4204H175.971V12.7558C175.971 12.2335 175.985 11.8178 176.014 11.5084C176.042 11.199 176.144 10.8944 176.319 10.5947C176.426 10.4059 176.611 10.2334 176.876 10.0771C177.14 9.92083 177.435 9.84269 177.76 9.84269ZM135.489 9.73633H146.309C146.959 9.73633 147.453 9.8908 147.791 10.1993C148.128 10.508 148.297 10.9061 148.297 11.3939C148.297 11.8882 148.127 12.2861 147.788 12.5876C147.449 12.8893 146.956 13.0399 146.309 13.0399H142.84V25.1275C142.84 25.8976 142.661 26.4786 142.304 26.8702C141.946 27.262 141.482 27.4578 140.91 27.4578C140.334 27.4578 139.867 27.2613 139.508 26.8682C139.149 26.4752 138.969 25.8948 138.969 25.1275V13.0399H135.489C134.846 13.0399 134.36 12.8895 134.03 12.5883C133.7 12.2873 133.535 11.8891 133.535 11.3939C133.535 10.8831 133.707 10.4793 134.051 10.1821C134.394 9.88492 134.874 9.73633 135.489 9.73633Z" fill="#F6BB00"/>
<path d="M154.059 17.5853L153.701 17.6156L153.403 17.7068L153.13 17.8626L152.908 18.0604L152.478 18.7341L152.473 18.7542H155.683L155.673 18.7095L155.261 18.0593L155.045 17.8665L154.762 17.71L154.446 17.6162L154.059 17.5853ZM154.617 16.6784L155.125 16.829L155.589 17.0858L155.982 17.4367L156.554 18.3398L156.854 19.7027H151.269L151.604 18.3518L152.189 17.4365L152.581 17.0865L153.03 16.8297L153.524 16.6786L154.057 16.6339L154.617 16.6784ZM154.056 16.3166L153.465 16.3663L152.906 16.5373L152.398 16.8277L151.949 17.2285L151.312 18.2244L150.868 20.0188H157.245L156.848 18.2167L156.222 17.2292L155.77 16.8254L155.246 16.5354L154.675 16.3658L154.056 16.3166ZM154.732 16.0533L155.367 16.2416L155.952 16.5653L156.463 17.0216L157.142 18.0934L157.636 20.335H150.466L151.021 18.097L151.709 17.0205L152.215 16.5691L152.782 16.245L153.406 16.054L154.055 15.9993L154.732 16.0533ZM167.039 13.3463L168.321 13.4233L169.504 13.6406L170.535 14.003L171.423 14.4587L172.166 15.0554L172.708 15.7254L173.077 16.4718L173.22 17.2924L173.05 18.1928L172.541 18.9303L171.746 19.4285L170.78 19.5678L170.011 19.442L169.374 19.0898L168.879 18.6259L168.427 18.0957L168.131 17.775L167.88 17.6L167.562 17.4841L167.051 17.4315L166.549 17.4821L166.224 17.6217L166.126 17.7127L166.134 17.6872L166.126 17.656L166.169 17.707L166.43 17.8516L166.933 18.0446L167.697 18.2574L168.796 18.5275L170.217 18.9563L171.417 19.4838L172.403 20.1525L173.173 20.9815L173.657 21.9765L173.816 23.097L173.618 24.6101L173.009 25.9242L172.011 26.9828L170.684 27.7098L169.11 28.1187L167.285 28.2556L165.525 28.1025L163.992 27.6608L162.731 26.9424L161.807 26.0278L161.226 24.9798L161.024 23.8267L161.195 22.9597L161.693 22.2172L162.445 21.7184L163.326 21.5531L164.108 21.6599L164.749 22.0063L165.194 22.5164L165.506 23.0264L165.889 23.5528L166.287 23.8759L166.802 24.076L167.575 24.155L168.159 24.0812L168.541 23.9148L168.686 23.7743L168.689 23.7634L168.648 23.5853L168.477 23.4123L168.282 23.3141L167.899 23.1571L167.375 23.0024L166.68 22.8202L165.24 22.4132L163.978 21.9282L162.896 21.3178L161.982 20.4641L161.361 19.3533L161.168 18.0313L161.358 16.7942L161.907 15.6529L162.787 14.6787L163.987 13.9491L165.415 13.501L167.039 13.3463ZM165.6 14.4359L164.375 14.8205L163.39 15.4199L162.693 16.1904L162.266 17.0799L162.119 18.0352L162.265 19.041L162.728 19.8689L163.452 20.545L164.377 21.0664L165.535 21.5115L166.925 21.9045L167.625 22.088L168.209 22.2604L168.67 22.4491L169.033 22.6327L169.503 23.1063L169.662 23.7989L169.512 24.288L169.071 24.7171L168.409 25.0057L167.586 25.1094L166.582 25.0066L165.812 24.7079L165.203 24.2138L164.726 23.5568L164.436 23.0828L164.156 22.7615L163.814 22.5767L163.349 22.5135L162.804 22.6158L162.366 22.9058L162.08 23.333L161.98 23.8371L162.124 24.6566L162.562 25.4463L163.301 26.178L164.357 26.7796L165.696 27.1653L167.291 27.3042L168.957 27.1791L170.338 26.8205L171.432 26.2207L172.223 25.3824L172.705 24.3409L172.867 23.1022L172.748 22.2594L172.391 21.5269L171.79 20.8797L170.963 20.3189L169.894 19.8485L168.55 19.4432L167.461 19.1753L166.64 18.947L166.035 18.7147L165.567 18.4556L165.273 18.1101L165.154 17.6634L165.307 17.1842L165.707 16.8128L166.314 16.5528L167.052 16.4783L167.773 16.5524L168.313 16.7495L168.75 17.0533L169.127 17.4634L169.557 17.967L169.928 18.3145L170.321 18.532L170.789 18.6085L171.418 18.5177L171.88 18.2278L172.164 17.8166L172.264 17.2852L172.175 16.7719L171.914 16.2437L171.502 15.734L170.912 15.2607L170.166 14.8774L169.264 14.5604L168.209 14.3668L167.055 14.2975L165.6 14.4359ZM167.06 14.6146L168.171 14.6812L169.184 14.867L170.043 15.169L170.741 15.5278L171.28 15.9603L171.649 16.4164L171.875 16.8719L171.946 17.2827L171.869 17.691L171.66 17.9938L171.308 18.2142L170.792 18.2888L170.424 18.2287L170.113 18.0562L169.783 17.7472L169.361 17.2524L168.956 16.8128L168.458 16.4659L167.843 16.2419L167.053 16.1606L166.235 16.243L165.535 16.5431L165.034 17.0081L164.828 17.6555L164.989 18.2614L165.366 18.7052L165.903 19.0024L166.542 19.2478L167.382 19.4816L168.468 19.7485L169.786 20.1462L170.812 20.5974L171.586 21.122L172.131 21.7087L172.445 22.3536L172.551 23.104L172.401 24.2512L171.96 25.2017L171.239 25.9666L170.222 26.5239L168.906 26.8658L167.293 26.9869L165.753 26.853L164.479 26.4858L163.49 25.923L162.814 25.2523L162.423 24.5489L162.299 23.8407L162.375 23.4575L162.591 23.1352L162.923 22.915L163.357 22.8335L163.716 22.8825L163.958 23.0133L164.183 23.2718L164.466 23.7336L164.975 24.4339L165.654 24.9852L166.509 25.3169L167.589 25.4276L168.492 25.3137L169.247 24.9845L169.787 24.4592L169.987 23.8109L169.788 22.9466L169.219 22.3728L168.799 22.161L168.312 21.9614L167.709 21.7832L167.007 21.5991L165.633 21.2109L164.51 20.7792L163.638 20.2873L162.977 19.6704L162.567 18.9369L162.436 18.0363L162.568 17.1752L162.955 16.3697L163.591 15.6669L164.504 15.1112L165.662 14.7476L167.06 14.6146ZM165.724 15.0592L164.634 15.4016L163.791 15.914L163.217 16.5488L162.871 17.2705L162.753 18.0376L162.868 18.8325L163.226 19.4721L163.823 20.0299L164.643 20.4921L165.731 20.9104L167.089 21.2938L167.792 21.4785L168.415 21.6626L168.928 21.8726L169.405 22.1131L170.072 22.787L170.311 23.8226L170.063 24.6304L169.424 25.2521L168.575 25.6218L167.593 25.7458L166.435 25.6272L165.495 25.2625L164.747 24.6543L164.206 23.9105L163.931 23.4606L163.76 23.2651L163.618 23.188L163.365 23.1537L163.042 23.2142L162.815 23.3646L162.67 23.5819L162.618 23.8441L162.723 24.4409L163.065 25.0586L163.68 25.6683L164.601 26.192L165.81 26.5407L167.295 26.6698L168.855 26.5526L170.106 26.2277L171.046 25.7126L171.698 25.0211L172.097 24.1616L172.234 23.1056L172.141 22.448L171.87 21.8902L171.381 21.3645L170.661 20.8758L169.678 20.4436L168.386 20.0538L167.303 19.7876L166.444 19.5486L165.772 19.2901L165.166 18.9547L164.705 18.413L164.501 17.6476L164.761 16.832L165.363 16.2737L166.156 15.9332L167.053 15.8428L167.913 15.9314L168.603 16.1825L169.162 16.572L169.595 17.0417L170.009 17.5277L170.298 17.7978L170.528 17.9252L170.794 17.969L171.199 17.9107L171.44 17.7596L171.573 17.5657L171.627 17.2804L171.574 16.972L171.384 16.589L171.059 16.1865L170.571 15.7952L169.92 15.4605L169.104 15.1737L168.134 14.9958L167.066 14.9316L165.724 15.0592ZM154.147 13.3326L155.166 13.3949L156.116 13.5521L157.015 13.8434L157.827 14.2611L158.55 14.7535L159.187 15.3153L159.74 15.9557L160.174 16.6682L160.521 17.4015L160.762 18.1474L160.907 18.9089L160.955 19.6886L160.903 20.444L160.689 21.11L160.322 21.6983L159.772 22.1147L158.668 22.4975L157.377 22.6075H152.359L152.332 22.3934L152.572 22.9997L152.911 23.5123L153.308 23.8448L153.762 24.0399L154.296 24.1108L155.044 24.0123L155.694 23.7174L156.393 23.1729L157.373 22.2726L157.927 21.9596L158.663 21.8503L159.463 21.9776L160.153 22.3954L160.628 23.0659L160.785 23.9059L160.643 24.6679L160.303 25.4244L159.76 26.1613L159.04 26.8216L158.143 27.4035L157.041 27.8642L155.797 28.1623L154.389 28.2549L152.782 28.1327L151.335 27.7558L150.048 27.1147L148.961 26.2112L148.101 25.1021L147.484 23.8091L147.127 22.3678L147.005 20.7855L147.127 19.2639L147.467 17.8434L148.066 16.5391L148.896 15.428L149.95 14.5256L151.206 13.8517L152.634 13.4559L154.147 13.3326ZM152.798 14.3942L151.556 14.7383L150.481 15.3149L149.584 16.0829L148.877 17.0293L148.359 18.1573L148.058 19.4145L147.948 20.7868L148.058 22.215L148.372 23.485L148.904 24.5983L149.638 25.545L150.562 26.3128L151.664 26.862L152.936 27.1933L154.394 27.3042L155.657 27.2211L156.751 26.9589L157.705 26.5599L158.466 26.0666L159.06 25.5213L159.489 24.9402L159.74 24.3802L159.829 23.9059L159.743 23.4473L159.502 23.1072L159.136 22.8859L158.659 22.8096L158.235 22.8726L157.926 23.0469L156.998 23.9001L156.181 24.5365L155.303 24.9348L154.295 25.0674L153.512 24.963L152.814 24.6634L152.205 24.1539L151.736 23.4437L151.415 22.6332L151.292 21.659H157.338L158.473 21.5623L159.326 21.2663L159.619 21.0447L159.831 20.7051L159.973 20.2625L160.013 19.6853L159.972 19.0281L159.85 18.3845L159.647 17.7547L159.347 17.1221L158.98 16.5194L158.52 15.9869L157.976 15.5066L157.349 15.08L156.655 14.7232L155.895 14.4766L155.061 14.3386L154.157 14.2833L152.798 14.3942ZM154.16 14.6003L155.026 14.6532L155.821 14.7846L156.535 15.0163L157.189 15.3528L157.785 15.7575L158.298 16.2107L158.727 16.7073L159.071 17.2734L159.355 17.8723L159.546 18.4635L159.661 19.0679L159.699 19.6841L159.663 20.202L159.545 20.57L159.385 20.8268L159.178 20.9835L158.408 21.2507L157.325 21.3428H150.936L151.109 22.7131L151.457 23.5916L151.97 24.3678L152.649 24.9362L153.429 25.2708L154.295 25.3862L155.39 25.2422L156.343 24.8095L157.199 24.1426L158.111 23.3053L158.338 23.1768L158.657 23.1296L159.027 23.1885L159.285 23.3443L159.448 23.5744L159.51 23.9059L159.439 24.2842L159.217 24.7788L158.827 25.3079L158.274 25.8149L157.559 26.2787L156.654 26.6572L155.61 26.9074L154.395 26.9873L152.987 26.8801L151.774 26.5641L150.733 26.0454L149.864 25.323L149.171 24.4303L148.669 23.3768L148.368 22.1642L148.262 20.7875L148.368 19.4646L148.656 18.2619L149.147 17.1928L149.813 16.3013L150.658 15.5782L151.672 15.0339L152.852 14.7069L154.16 14.6003ZM152.907 15.0197L151.788 15.3295L150.835 15.8413L150.042 16.5196L149.417 17.3563L148.954 18.3667L148.678 19.5148L148.576 20.788L148.678 22.1131L148.965 23.2689L149.439 24.2623L150.089 25.1008L150.904 25.7783L151.884 26.2661L153.039 26.5669L154.397 26.6703L155.563 26.5935L156.557 26.3555L157.414 25.9973L158.083 25.5633L158.594 25.0945L158.946 24.6175L159.138 24.1885L159.191 23.9059L159.153 23.7016L159.068 23.5817L158.918 23.4911L158.655 23.4493L158.441 23.4812L158.295 23.5634L157.401 24.3849L156.505 25.0825L155.476 25.5497L154.294 25.7051L153.345 25.5786L152.484 25.209L151.735 24.5816L151.178 23.7395L150.803 22.7931L150.58 21.0267H157.311L158.343 20.9388L159.029 20.7008L159.151 20.6089L159.259 20.4352L159.353 20.1414L159.385 19.683L159.349 19.1076L159.242 18.5426L159.064 17.99L158.796 17.4247L158.473 16.8952L158.076 16.4347L157.593 16.0086L157.03 15.6258L156.415 15.3094L155.747 15.0929L154.991 14.9678L154.163 14.9172L152.907 15.0197ZM177.794 9.04887L178.727 9.22908L179.551 9.7828L180.011 10.3736L180.253 11.0269L180.339 11.7172L180.369 12.4862V13.6309H180.538L181.411 13.7594L182.2 14.2115L182.729 14.9303L182.888 15.8013L182.665 16.8606L181.911 17.5738L180.971 17.8836L179.952 17.9638H180.369V22.74L180.382 23.3637L180.405 23.7217L180.432 23.8402L180.412 23.8084L180.328 23.7517L180.398 23.7605L180.606 23.7422L180.995 23.6767L181.446 23.6011L181.914 23.56L182.65 23.7174L183.286 24.176L183.736 24.835L183.89 25.6322L183.802 26.3024L183.529 26.897L183.081 27.3708L182.545 27.7188L181.918 27.9649L181.236 28.1287L180.488 28.2231L179.655 28.2535L178.844 28.2222L178.114 28.0912L177.465 27.8897L176.843 27.5851L175.974 26.7635L175.474 25.6823L175.267 24.459L175.193 23.023V17.9638H175.738L174.873 17.8367L174.075 17.4013L173.55 16.6651L173.372 15.7882L173.555 14.9136L174.102 14.2L174.918 13.7569L175.81 13.6309H175.193V12.7619L175.208 12.0361L175.239 11.4083L175.369 10.8112L175.658 10.1703L176.016 9.7417L176.5 9.39574L177.098 9.13378L177.794 9.04887ZM177.347 10.059L176.963 10.2268L176.657 10.4454L176.46 10.6816L176.266 11.1122L176.174 11.5348L176.147 12.0697L176.133 12.7714V14.5793H175.876L175.215 14.6726L174.723 14.9398L174.43 15.3221L174.332 15.7907L174.431 16.276L174.712 16.6707L175.173 16.9223L175.806 17.0153H176.133V22.9986L176.203 24.3542L176.379 25.3968L176.749 26.1967L177.381 26.7945L177.811 27.0047L178.335 27.1675L178.945 27.2769L179.656 27.3044L180.412 27.2766L181.068 27.194L181.637 27.0573L182.116 26.8695L182.479 26.6341L182.741 26.3564L182.888 26.035L182.938 25.6608L182.851 25.2105L182.606 24.8513L182.263 24.6042L181.856 24.517L181.564 24.5428L181.15 24.6123L180.724 24.6839L180.38 24.7142L179.991 24.6649L179.722 24.4843L179.551 24.207L179.472 23.8581L179.443 23.4046L179.429 22.7502V17.0153H179.915L180.786 16.9469L181.42 16.7378L181.807 16.3722L181.93 15.7882L181.844 15.3187L181.564 14.9375L181.1 14.6722L180.469 14.5793H179.429V12.5049L179.401 11.7949L179.335 11.2554L179.182 10.8442L178.904 10.4881L178.364 10.1245L177.762 10.0082L177.347 10.059ZM177.751 10.3279L178.243 10.423L178.689 10.7231L178.905 11.0009L179.028 11.3315L179.089 11.8206L179.116 12.511V14.8955H180.447L180.997 14.9763L181.352 15.1794L181.549 15.4481L181.61 15.7837L181.52 16.2094L181.257 16.4591L180.724 16.6346L179.903 16.6992H179.116V22.7538L179.13 23.4182L179.161 23.9037L179.257 24.3291L179.492 24.7097L179.879 24.9696L180.374 25.0319L180.764 24.9978L181.202 24.9242L181.603 24.8567L181.837 24.8361L182.134 24.8998L182.379 25.0762L182.556 25.3357L182.621 25.6703L182.584 25.9458L182.479 26.1762L182.278 26.3887L181.973 26.5863L181.544 26.7547L181.012 26.8823L180.387 26.9614L179.656 26.988L178.978 26.9618L178.409 26.8597L177.926 26.7096L177.561 26.5312L177.008 26.0077L176.681 25.3015L176.515 24.3192L176.447 22.9904V16.6992H175.829L175.274 16.6176L174.924 16.427L174.724 16.1461L174.652 15.7916L174.722 15.4583L174.93 15.1864L175.314 14.9779L175.897 14.8955H176.447V12.7745L176.46 12.081L176.486 11.577L176.565 11.2125L176.727 10.8519L176.871 10.68L177.118 10.5036L177.43 10.3672L177.751 10.3279ZM177.513 10.6755L177.272 10.7807L177.085 10.9146L176.995 11.0224L176.864 11.3128L176.798 11.6192L176.773 12.0923L176.76 12.7777V15.2117H175.919L175.413 15.2832L175.137 15.433L175.014 15.5944L174.972 15.7925L175.018 16.0165L175.137 16.1836L175.374 16.3128L175.852 16.383H176.76V22.9823L176.827 24.2844L176.983 25.2065L177.266 25.8189L177.74 26.2676L178.041 26.4146L178.483 26.5517L179.012 26.6468L179.656 26.6716L180.362 26.6459L180.956 26.5709L181.45 26.4524L181.83 26.3031L182.077 26.143L182.216 25.9957L182.28 25.8566L182.303 25.6798L182.261 25.4608L182.152 25.3013L182.005 25.1954L181.817 25.1552L181.642 25.1706L181.253 25.2361L180.803 25.3117L180.368 25.3499L179.766 25.274L179.262 24.9348L178.963 24.4513L178.85 23.9491L178.817 23.4319L178.802 22.7572V16.383H179.891L180.662 16.3223L181.093 16.1802L181.234 16.0468L181.291 15.7792L181.254 15.5775L181.139 15.4214L180.894 15.2808L180.424 15.2117H178.802V12.5171L178.776 11.8466L178.722 11.4076L178.629 11.1579L178.474 10.958L178.122 10.7216L177.74 10.6477L177.513 10.6755ZM135.442 8.95898H146.373L147.418 9.09742L148.336 9.5913L148.919 10.4199L149.106 11.4008L148.918 12.3888L148.318 13.2104L147.422 13.7038L146.373 13.8425H143.636V25.1884L143.469 26.4056L142.907 27.4225L142.019 28.0679L140.923 28.2655L139.828 28.0684L138.909 27.409L138.362 26.4029L138.195 25.1884V13.8425H135.444L134.391 13.7031L133.504 13.2038L132.925 12.3818L132.738 11.3959L132.943 10.3824L133.529 9.57211L134.428 9.09787L135.442 8.95898ZM134.718 10.0154L134.159 10.3101L133.823 10.7746L133.696 11.4017L133.81 12.0006L134.148 12.4798L134.692 12.7865L135.505 12.894H139.135V25.1229L139.269 26.0994L139.63 26.762L140.201 27.1721L140.923 27.3021L141.643 27.1723L142.188 26.7764L142.562 26.0989L142.696 25.1229V12.894H146.312L147.126 12.7863L147.685 12.4785L148.035 11.9993L148.149 11.4008L148.035 10.801L147.698 10.323L147.127 10.0154L146.312 9.90746H135.506L134.718 10.0154ZM135.527 10.2236H146.291L147.029 10.3214L147.486 10.5669L147.74 10.928L147.83 11.4008L147.741 11.8694L147.474 12.2346L147.027 12.4805L146.291 12.5778H142.383V25.101L142.26 25.9966L141.948 26.561L141.518 26.8738L140.923 26.981L140.326 26.8733L139.87 26.5463L139.572 25.9984L139.448 25.101V12.5778H135.526L134.792 12.481L134.362 12.2387L134.105 11.8737L134.016 11.4038L134.117 10.9054L134.369 10.556L134.815 10.3212L135.527 10.2236ZM134.911 10.6269L134.579 10.802L134.41 11.0359L134.335 11.4058L134.4 11.7466L134.576 11.9972L134.892 12.1752L135.546 12.2617H139.761V25.0791L139.874 25.8973L140.11 26.3306L140.45 26.5745L140.923 26.6597L141.392 26.5752L141.708 26.3455L141.957 25.8946L142.07 25.0791V12.2617H146.271L146.928 12.1747L147.263 11.9905L147.446 11.7396L147.511 11.4008L147.445 11.0551L147.273 10.8108L146.932 10.6274L146.271 10.5398H135.548L134.911 10.6269Z" fill="#BF9000"/>
</g>
<defs>
<clipPath id="clip0">
<rect width="188" height="34.5514" fill="white"/>
</clipPath>
</defs>
</svg>
