<svg width="16" height="16" viewBox="0 0 16 16" fill="none" xmlns="http://www.w3.org/2000/svg">
<path d="M14 6.72727C14 11.1818 8 15 8 15C8 15 2 11.1818 2 6.72727C2 5.20831 2.63214 3.75155 3.75736 2.67748C4.88258 1.60341 6.4087 1 8 1C9.5913 1 11.1174 1.60341 12.2426 2.67748C13.3679 3.75155 14 5.20831 14 6.72727Z" stroke="black" stroke-linecap="round" stroke-linejoin="round"/>
<path d="M8 9C9.10457 9 10 7.88071 10 6.5C10 5.11929 9.10457 4 8 4C6.89543 4 6 5.11929 6 6.5C6 7.88071 6.89543 9 8 9Z" stroke="black" stroke-linecap="round" stroke-linejoin="round"/>
</svg>
