<svg width="40" height="42" viewBox="0 0 40 42" fill="none" xmlns="http://www.w3.org/2000/svg">
<rect width="40" height="41.4286" rx="4.38196" fill="#DBA11C"/>
<g clip-path="url(#clip0)">
<path d="M32.6232 12.3401C31.0231 11.641 29.4218 11.375 27.8212 11.375C22.7404 11.3746 17.66 14.0537 12.5791 14.0537C11.3049 14.0537 10.0315 13.8853 8.75728 13.4642C8.61414 13.4169 8.47058 13.3946 8.33033 13.3946C7.62041 13.3946 7 13.9669 7 14.7614V28.3939C7 28.9366 7.29824 29.4509 7.77716 29.6598C9.37727 30.3593 10.9786 30.6253 12.5791 30.6253C17.66 30.6253 22.7408 27.9461 27.8217 27.9461C29.0959 27.9461 30.3693 28.1146 31.6435 28.5357C31.7867 28.5829 31.9302 28.6053 32.0705 28.6053C32.7804 28.6053 33.4008 28.0329 33.4008 27.2384V13.6064C33.4004 13.0633 33.1021 12.5494 32.6232 12.3401ZM20.2002 25.1252C18.3773 25.1252 16.9001 23.2779 16.9001 21.0001C16.9001 18.7219 18.3777 16.8751 20.2002 16.8751C22.0226 16.8751 23.5002 18.7219 23.5002 21.0001C23.5002 23.2788 22.0222 25.1252 20.2002 25.1252Z" fill="white"/>
</g>
<defs>
<clipPath id="clip0">
<rect width="26.4004" height="22.0003" fill="white" transform="translate(7 10)"/>
</clipPath>
</defs>
</svg>
