<svg width="40" height="40" viewBox="0 0 40 40" fill="none" xmlns="http://www.w3.org/2000/svg">
<g clip-path="url(#clip0)">
<path d="M31.2469 39.961C28.8273 39.961 26.7656 39.1089 25.0615 37.4049C23.3574 35.7008 22.5054 33.639 22.5054 31.2195C22.5054 28.8 23.3574 26.7382 25.0615 25.0341C26.7656 23.3301 28.8273 22.478 31.2469 22.478C33.6664 22.478 35.7282 23.3301 37.4322 25.0341C39.1363 26.7382 39.9883 28.8 39.9883 31.2195C39.9883 33.639 39.1363 35.7008 37.4322 37.4049C35.7282 39.1089 33.6664 39.961 31.2469 39.961ZM36.242 29.9707H32.4956V26.2244C32.4956 25.8862 32.3721 25.5935 32.1249 25.3463C31.8778 25.0992 31.5851 24.9756 31.2469 24.9756C30.9086 24.9756 30.616 25.0992 30.3688 25.3463C30.1217 25.5935 29.9981 25.8862 29.9981 26.2244V31.2195C29.9981 31.5317 30.0956 31.7984 30.2908 32.0195C30.4859 32.2407 30.7265 32.3772 31.0127 32.4293C31.0647 32.4553 31.1428 32.4683 31.2469 32.4683H36.242C36.5802 32.4683 36.8729 32.3447 37.12 32.0976C37.3672 31.8504 37.4908 31.5577 37.4908 31.2195C37.4908 30.8813 37.3672 30.5886 37.12 30.3415C36.8729 30.0943 36.5802 29.9707 36.242 29.9707ZM18.7591 32.4683H11.2664C10.9282 32.4683 10.6355 32.3447 10.3883 32.0976C10.1412 31.8504 10.0176 31.5577 10.0176 31.2195C10.0176 30.8813 10.1412 30.5886 10.3883 30.3415C10.6355 30.0943 10.9282 29.9707 11.2664 29.9707H18.7591C19.0973 29.9707 19.3899 30.0943 19.6371 30.3415C19.8843 30.5886 20.0078 30.8813 20.0078 31.2195C20.0078 31.5577 19.8843 31.8504 19.6371 32.0976C19.3899 32.3447 19.0973 32.4683 18.7591 32.4683ZM11.2664 24.9756H18.7591C19.0973 24.9756 19.3899 25.0992 19.6371 25.3463C19.8843 25.5935 20.0078 25.8862 20.0078 26.2244C20.0078 26.5626 19.8843 26.8553 19.6371 27.1024C19.3899 27.3496 19.0973 27.4732 18.7591 27.4732H11.2664C10.9282 27.4732 10.6355 27.3496 10.3883 27.1024C10.1412 26.8553 10.0176 26.5626 10.0176 26.2244C10.0176 25.8862 10.1412 25.5935 10.3883 25.3463C10.6355 25.0992 10.9282 24.9756 11.2664 24.9756ZM23.7542 22.478H11.2664C10.9282 22.478 10.6355 22.3545 10.3883 22.1073C10.1412 21.8602 10.0176 21.5675 10.0176 21.2293C10.0176 20.8911 10.1412 20.5984 10.3883 20.3512C10.6355 20.1041 10.9282 19.9805 11.2664 19.9805H23.7542C24.0924 19.9805 24.3851 20.1041 24.6322 20.3512C24.8794 20.5984 25.003 20.8911 25.003 21.2293C25.003 21.5675 24.8794 21.8602 24.6322 22.1073C24.3851 22.3545 24.0924 22.478 23.7542 22.478ZM28.7493 17.4829H11.2664C10.9282 17.4829 10.6355 17.3594 10.3883 17.1122C10.1412 16.865 10.0176 16.5724 10.0176 16.2341C10.0176 15.8959 10.1412 15.6033 10.3883 15.3561C10.6355 15.1089 10.9282 14.9854 11.2664 14.9854H28.7493C29.0875 14.9854 29.3802 15.1089 29.6273 15.3561C29.8745 15.6033 29.9981 15.8959 29.9981 16.2341C29.9981 16.5724 29.8745 16.865 29.6273 17.1122C29.3802 17.3594 29.0875 17.4829 28.7493 17.4829ZM28.7493 7.49268H11.2664C10.9282 7.49268 10.6355 7.36911 10.3883 7.12195C10.1412 6.8748 10.0176 6.58211 10.0176 6.2439C10.0176 5.90569 10.1412 5.61301 10.3883 5.36585C10.6355 5.1187 10.9282 4.99512 11.2664 4.99512H28.7493C29.0875 4.99512 29.3802 5.1187 29.6273 5.36585C29.8745 5.61301 29.9981 5.90569 29.9981 6.2439C29.9981 6.58211 29.8745 6.8748 29.6273 7.12195C29.3802 7.36911 29.0875 7.49268 28.7493 7.49268ZM28.7493 12.4878H11.2664C10.9282 12.4878 10.6355 12.3642 10.3883 12.1171C10.1412 11.8699 10.0176 11.5772 10.0176 11.239C10.0176 10.9008 10.1412 10.6081 10.3883 10.361C10.6355 10.1138 10.9282 9.99024 11.2664 9.99024H28.7493C29.0875 9.99024 29.3802 10.1138 29.6273 10.361C29.8745 10.6081 29.9981 10.9008 29.9981 11.239C29.9981 11.5772 29.8745 11.8699 29.6273 12.1171C29.3802 12.3642 29.0875 12.4878 28.7493 12.4878ZM32.4956 3.74634C32.4956 3.40813 32.3721 3.11545 32.1249 2.86829C31.8778 2.62114 31.5851 2.49756 31.2469 2.49756H6.27125C5.93304 2.49756 5.64035 2.62114 5.3932 2.86829C5.14604 3.11545 5.02247 3.40813 5.02247 3.74634V4.99512C5.72491 4.99512 6.31678 5.23577 6.79808 5.71707C7.27938 6.19837 7.52003 6.79024 7.52003 7.49268C7.52003 8.19512 7.27938 8.78699 6.79808 9.26829C6.31678 9.74959 5.72491 9.99024 5.02247 9.99024V12.4878C5.72491 12.4878 6.31678 12.7285 6.79808 13.2098C7.27938 13.6911 7.52003 14.2829 7.52003 14.9854C7.52003 15.6878 7.27938 16.2797 6.79808 16.761C6.31678 17.2423 5.72491 17.4829 5.02247 17.4829V19.9805C5.72491 19.9805 6.31678 20.2211 6.79808 20.7024C7.27938 21.1837 7.52003 21.7691 7.52003 22.4585C7.52003 23.148 7.27938 23.7398 6.79808 24.2341C6.31678 24.7285 5.72491 24.9756 5.02247 24.9756V27.4732C5.72491 27.4732 6.31678 27.7138 6.79808 28.1951C7.27938 28.6764 7.52003 29.2618 7.52003 29.9512C7.52003 30.6406 7.27938 31.2325 6.79808 31.7268C6.31678 32.2211 5.72491 32.4683 5.02247 32.4683V33.7171C5.02247 34.0553 5.14604 34.348 5.3932 34.5951C5.64035 34.8423 5.93304 34.9659 6.27125 34.9659H22.5054V37.4634H5.02247C4.34604 37.4634 3.76068 37.2163 3.26637 36.722C2.77206 36.2276 2.5249 35.6423 2.5249 34.9659V32.4683C1.84848 32.4683 1.26312 32.2211 0.768807 31.7268C0.274498 31.2325 0.0273438 30.6406 0.0273438 29.9512C0.0273438 29.2618 0.274498 28.6764 0.768807 28.1951C1.26312 27.7138 1.84848 27.4732 2.5249 27.4732V24.9756C1.84848 24.9756 1.26312 24.7285 0.768807 24.2341C0.274498 23.7398 0.0273438 23.148 0.0273438 22.4585C0.0273438 21.7691 0.274498 21.1837 0.768807 20.7024C1.26312 20.2211 1.84848 19.9805 2.5249 19.9805V17.4829C1.84848 17.4829 1.26312 17.2423 0.768807 16.761C0.274498 16.2797 0.0273438 15.6878 0.0273438 14.9854C0.0273438 14.2829 0.274498 13.6911 0.768807 13.2098C1.26312 12.7285 1.84848 12.4878 2.5249 12.4878V9.99024C1.84848 9.99024 1.26312 9.74959 0.768807 9.26829C0.274498 8.78699 0.0273438 8.19512 0.0273438 7.49268C0.0273438 6.79024 0.274498 6.19837 0.768807 5.71707C1.26312 5.23577 1.84848 4.99512 2.5249 4.99512V2.49756C2.5249 1.79512 2.77206 1.20325 3.26637 0.721951C3.76068 0.24065 4.34604 0 5.02247 0H32.4956C33.1721 0 33.7574 0.24065 34.2517 0.721951C34.746 1.20325 34.9932 1.79512 34.9932 2.49756V19.9805H32.4956V3.74634Z" fill="#DBA11C"/>
</g>
<defs>
<clipPath id="clip0">
<rect width="40" height="39.961" fill="white"/>
</clipPath>
</defs>
</svg>
