<svg width="40" height="42" viewBox="0 0 40 42" fill="none" xmlns="http://www.w3.org/2000/svg">
<rect width="40" height="41.4286" rx="4.38196" fill="#DBA11C"/>
<path d="M24.6597 13.1992H21.17C20.845 13.1992 20.5322 13.3211 20.2925 13.5405L16.2991 17.1967C16.295 17.2008 16.2909 17.2089 16.2869 17.213C15.6125 17.8467 15.6247 18.8583 16.2016 19.488C16.7175 20.0527 17.8022 20.203 18.4806 19.5977C18.4847 19.5936 18.4928 19.5936 18.4969 19.5895L21.7428 16.6158C22.0069 16.3761 22.4212 16.3923 22.6609 16.6564C22.9047 16.9205 22.8844 17.3308 22.6203 17.5745L21.56 18.5455L27.475 23.3473C27.5928 23.4448 27.6984 23.5505 27.7959 23.6602V15.7992L25.5778 13.5811C25.3381 13.3373 25.005 13.1992 24.6597 13.1992ZM29.1 15.8073V24.9033C29.1 25.6223 29.6809 26.2033 30.4 26.2033H33V15.8073H29.1ZM31.05 24.9033C30.6925 24.9033 30.4 24.6108 30.4 24.2533C30.4 23.8958 30.6925 23.6033 31.05 23.6033C31.4075 23.6033 31.7 23.8958 31.7 24.2533C31.7 24.6108 31.4075 24.9033 31.05 24.9033ZM7 26.1992H9.6C10.3191 26.1992 10.9 25.6183 10.9 24.8992V15.8073H7V26.1992ZM8.95 23.6033C9.3075 23.6033 9.6 23.8958 9.6 24.2533C9.6 24.6108 9.3075 24.9033 8.95 24.9033C8.5925 24.9033 8.3 24.6108 8.3 24.2533C8.3 23.8917 8.5925 23.6033 8.95 23.6033ZM26.6584 24.3589L20.5931 19.4352L19.3744 20.5523C18.1678 21.6533 16.3194 21.5477 15.2428 20.3736C14.15 19.1792 14.2353 17.3308 15.4216 16.242L18.7447 13.1992H15.3403C14.995 13.1992 14.6659 13.3373 14.4222 13.5811L12.2 15.7992V24.8952H12.9434L16.62 28.2223C17.7331 29.1283 19.3703 28.9577 20.2762 27.8445L20.2844 27.8364L21.0116 28.4661C21.6575 28.9942 22.6122 28.8927 23.1362 28.2467L24.4119 26.6786L24.6312 26.8573C25.1878 27.3083 26.0084 27.227 26.4594 26.6664L26.8453 26.1911C27.3003 25.6305 27.215 24.8139 26.6584 24.3589Z" fill="white"/>
</svg>
