<svg width="95" height="95" viewBox="0 0 95 95" fill="none" xmlns="http://www.w3.org/2000/svg">
<rect width="95" height="95" rx="8" fill="#F6BB00"/>
<path d="M62.05 31.4906C59.4906 27.0937 56.0125 24.6875 52.25 24.6875H41.75C37.9875 24.6875 34.5094 27.0937 31.95 31.4906C29.3906 35.8875 28.1875 41.1594 28.1875 47C28.1875 52.8406 29.5219 58.3531 31.95 62.5094C34.3781 66.6656 37.9875 69.3125 41.75 69.3125H52.25C56.0125 69.3125 59.4906 66.9062 62.05 62.5094C64.6094 58.1125 65.8125 52.8406 65.8125 47C65.8125 41.1594 64.4781 35.6469 62.05 31.4906ZM63.1656 45.6875H55.2906C55.1375 41.575 54.3281 37.6594 52.9281 34.3125H60.5625C62.1156 37.5281 63.0125 41.4875 63.1656 45.6875ZM52.25 27.3125C54.7219 27.3125 57.1063 28.8656 59.0531 31.6875H51.6594L51.55 31.4906C50.6703 29.9243 49.5397 28.5128 48.2031 27.3125H52.25ZM34.225 61.1969C32.0156 57.4125 30.8125 52.3813 30.8125 47C30.8125 41.6187 32.0156 36.5875 34.225 32.8031C36.4344 29.0187 38.9719 27.3125 41.75 27.3125C44.5281 27.3125 47.2187 29.2594 49.275 32.8031C51.3312 36.3469 52.6875 41.6187 52.6875 47C52.6875 52.3813 51.4844 57.4125 49.275 61.1969C47.0656 64.9812 44.5281 66.6875 41.75 66.6875C38.9719 66.6875 36.2812 64.7406 34.225 61.1969ZM52.25 66.6875H48.2031C49.5397 65.4872 50.6703 64.0757 51.55 62.5094L51.6594 62.3125H59.0531C57.1063 65.1344 54.7219 66.6875 52.25 66.6875ZM60.5625 59.6875H52.9281C54.3281 56.3406 55.1375 52.425 55.2906 48.3125H63.1656C63.0125 52.5125 62.1156 56.4719 60.5625 59.6875Z" fill="white"/>
</svg>
