<svg width="95" height="95" viewBox="0 0 95 95" fill="none" xmlns="http://www.w3.org/2000/svg">
<rect width="95" height="95" rx="8" fill="#F6BB00"/>
<path d="M74.3461 34.4832C72.198 30.793 69.2789 28.7734 66.1211 28.7734H57.3086C54.1508 28.7734 51.2316 30.793 49.0836 34.4832C46.9355 38.1734 45.9258 42.598 45.9258 47.5C45.9258 52.402 47.0457 57.0285 49.0836 60.5168C51.1215 64.0051 54.1508 66.2266 57.3086 66.2266H66.1211C69.2789 66.2266 72.198 64.207 74.3461 60.5168C76.4941 56.8266 77.5039 52.402 77.5039 47.5C77.5039 42.598 76.384 37.9715 74.3461 34.4832ZM75.2824 46.3984H68.673C68.5445 42.9469 67.8652 39.6605 66.6902 36.8516H73.0977C74.4012 39.5504 75.1539 42.8734 75.2824 46.3984ZM66.1211 30.9766C68.1957 30.9766 70.1969 32.2801 71.8309 34.6484H65.6254L65.5336 34.4832C64.7953 33.1686 63.8464 31.984 62.7246 30.9766H66.1211ZM50.993 59.4152C49.1387 56.2391 48.1289 52.0164 48.1289 47.5C48.1289 42.9836 49.1387 38.7609 50.993 35.5848C52.8473 32.4086 54.977 30.9766 57.3086 30.9766C59.6402 30.9766 61.8984 32.6105 63.6242 35.5848C65.35 38.559 66.4883 42.9836 66.4883 47.5C66.4883 52.0164 65.4785 56.2391 63.6242 59.4152C61.7699 62.5914 59.6402 64.0234 57.3086 64.0234C54.977 64.0234 52.7187 62.3895 50.993 59.4152ZM66.1211 64.0234H62.7246C63.8464 63.016 64.7953 61.8314 65.5336 60.5168L65.6254 60.3516H71.8309C70.1969 62.7199 68.1957 64.0234 66.1211 64.0234ZM73.0977 58.1484H66.6902C67.8652 55.3395 68.5445 52.0531 68.673 48.6016H75.2824C75.1539 52.1266 74.4012 55.4496 73.0977 58.1484Z" fill="white"/>
<path d="M44.1313 34.4832C41.9832 30.793 39.0641 28.7734 35.9062 28.7734H27.0938C23.9359 28.7734 21.0168 30.793 18.8688 34.4832C16.7207 38.1734 15.7109 42.598 15.7109 47.5C15.7109 52.402 16.8309 57.0285 18.8688 60.5168C20.9066 64.0051 23.9359 66.2266 27.0938 66.2266H35.9062C39.0641 66.2266 41.9832 64.207 44.1313 60.5168C46.2793 56.8266 47.2891 52.402 47.2891 47.5C47.2891 42.598 46.1691 37.9715 44.1313 34.4832ZM45.0676 46.3984H38.4582C38.3297 42.9469 37.6504 39.6605 36.4754 36.8516H42.8828C44.1863 39.5504 44.9391 42.8734 45.0676 46.3984ZM35.9062 30.9766C37.9809 30.9766 39.982 32.2801 41.616 34.6484H35.4105L35.3188 34.4832C34.5805 33.1686 33.6315 31.984 32.5098 30.9766H35.9062ZM20.7781 59.4152C18.9238 56.2391 17.9141 52.0164 17.9141 47.5C17.9141 42.9836 18.9238 38.7609 20.7781 35.5848C22.6324 32.4086 24.7621 30.9766 27.0938 30.9766C29.4254 30.9766 31.6836 32.6105 33.4094 35.5848C35.1352 38.559 36.2734 42.9836 36.2734 47.5C36.2734 52.0164 35.2637 56.2391 33.4094 59.4152C31.5551 62.5914 29.4254 64.0234 27.0938 64.0234C24.7621 64.0234 22.5039 62.3895 20.7781 59.4152ZM35.9062 64.0234H32.5098C33.6315 63.016 34.5805 61.8314 35.3188 60.5168L35.4105 60.3516H41.616C39.982 62.7199 37.9809 64.0234 35.9062 64.0234ZM42.8828 58.1484H36.4754C37.6504 55.3395 38.3297 52.0531 38.4582 48.6016H45.0676C44.9391 52.1266 44.1863 55.4496 42.8828 58.1484Z" fill="white"/>
</svg>
