<svg width="95" height="95" viewBox="0 0 95 95" fill="none" xmlns="http://www.w3.org/2000/svg">
<rect width="95" height="95" rx="8" fill="#F6BB00"/>
<path d="M57.3267 36.5856C55.5678 33.5639 53.1774 31.9102 50.5916 31.9102H43.3755C40.7897 31.9102 38.3994 33.5639 36.6405 36.5856C34.8815 39.6074 34.0547 43.2304 34.0547 47.2444C34.0547 51.2584 34.9717 55.0468 36.6405 57.9032C38.3092 60.7596 40.7897 62.5787 43.3755 62.5787H50.5916C53.1774 62.5787 55.5678 60.925 57.3267 57.9032C59.0856 54.8815 59.9125 51.2584 59.9125 47.2444C59.9125 43.2304 58.9954 39.442 57.3267 36.5856ZM58.0934 46.3424H52.6813C52.5761 43.5161 52.0198 40.8251 51.0577 38.5249H56.3044C57.3718 40.7349 57.9882 43.456 58.0934 46.3424ZM50.5916 33.7142C52.2904 33.7142 53.9291 34.7816 55.2671 36.7209H50.1857L50.1106 36.5856C49.506 35.5091 48.729 34.5391 47.8104 33.7142H50.5916ZM38.204 57.0012C36.6856 54.4004 35.8587 50.9427 35.8587 47.2444C35.8587 43.5462 36.6856 40.0884 38.204 37.4876C39.7224 34.8868 41.4662 33.7142 43.3755 33.7142C45.2848 33.7142 47.1339 35.0522 48.5471 37.4876C49.9602 39.9231 50.8923 43.5462 50.8923 47.2444C50.8923 50.9427 50.0655 54.4004 48.5471 57.0012C47.0287 59.602 45.2848 60.7746 43.3755 60.7746C41.4662 60.7746 39.6171 59.4367 38.204 57.0012ZM50.5916 60.7746H47.8104C48.729 59.9497 49.506 58.9797 50.1106 57.9032L50.1857 57.7679H55.2671C53.9291 59.7073 52.2904 60.7746 50.5916 60.7746ZM56.3044 55.9639H51.0577C52.0198 53.6638 52.5761 50.9727 52.6813 48.1464H58.0934C57.9882 51.0329 57.3718 53.754 56.3044 55.9639Z" fill="white"/>
<path d="M32.5845 36.5856C30.8256 33.5639 28.4352 31.9102 25.8494 31.9102H18.6333C16.0475 31.9102 13.6572 33.5639 11.8983 36.5856C10.1393 39.6074 9.3125 43.2304 9.3125 47.2444C9.3125 51.2584 10.2295 55.0468 11.8983 57.9032C13.567 60.7596 16.0475 62.5787 18.6333 62.5787H25.8494C28.4352 62.5787 30.8256 60.925 32.5845 57.9032C34.3434 54.8815 35.1703 51.2584 35.1703 47.2444C35.1703 43.2304 34.2532 39.442 32.5845 36.5856ZM33.3512 46.3424H27.9391C27.8339 43.5161 27.2776 40.8251 26.3155 38.5249H31.5622C32.6296 40.7349 33.246 43.456 33.3512 46.3424ZM25.8494 33.7142C27.5482 33.7142 29.1869 34.7816 30.5249 36.7209H25.4435L25.3684 36.5856C24.7638 35.5091 23.9868 34.5391 23.0682 33.7142H25.8494ZM13.4618 57.0012C11.9434 54.4004 11.1165 50.9427 11.1165 47.2444C11.1165 43.5462 11.9434 40.0884 13.4618 37.4876C14.9802 34.8868 16.7241 33.7142 18.6333 33.7142C20.5426 33.7142 22.3917 35.0522 23.8049 37.4876C25.218 39.9231 26.1501 43.5462 26.1501 47.2444C26.1501 50.9427 25.3233 54.4004 23.8049 57.0012C22.2865 59.602 20.5426 60.7746 18.6333 60.7746C16.7241 60.7746 14.8749 59.4367 13.4618 57.0012ZM25.8494 60.7746H23.0682C23.9868 59.9497 24.7638 58.9797 25.3684 57.9032L25.4435 57.7679H30.5249C29.1869 59.7073 27.5482 60.7746 25.8494 60.7746ZM31.5622 55.9639H26.3155C27.2776 53.6638 27.8339 50.9727 27.9391 48.1464H33.3512C33.246 51.0329 32.6296 53.754 31.5622 55.9639Z" fill="white"/>
<path d="M81.7173 36.5856C79.9584 33.5639 77.568 31.9102 74.9823 31.9102H67.7661C65.1804 31.9102 62.79 33.5639 61.0311 36.5856C59.2722 39.6074 58.4453 43.2304 58.4453 47.2444C58.4453 51.2584 59.3624 55.0468 61.0311 57.9032C62.6998 60.7596 65.1804 62.5787 67.7661 62.5787H74.9823C77.568 62.5787 79.9584 60.925 81.7173 57.9032C83.4762 54.8815 84.3031 51.2584 84.3031 47.2444C84.3031 43.2304 83.386 39.442 81.7173 36.5856ZM82.484 46.3424H77.0719C76.9667 43.5161 76.4104 40.8251 75.4483 38.5249H80.695C81.7624 40.7349 82.3788 43.456 82.484 46.3424ZM74.9823 33.7142C76.6811 33.7142 78.3197 34.7816 79.6577 36.7209H74.5764L74.5012 36.5856C73.8966 35.5091 73.1196 34.5391 72.201 33.7142H74.9823ZM62.5946 57.0012C61.0762 54.4004 60.2493 50.9427 60.2493 47.2444C60.2493 43.5462 61.0762 40.0884 62.5946 37.4876C64.113 34.8868 65.8569 33.7142 67.7661 33.7142C69.6754 33.7142 71.5245 35.0522 72.9377 37.4876C74.3508 39.9231 75.2829 43.5462 75.2829 47.2444C75.2829 50.9427 74.4561 54.4004 72.9377 57.0012C71.4193 59.602 69.6754 60.7746 67.7661 60.7746C65.8569 60.7746 64.0077 59.4367 62.5946 57.0012ZM74.9823 60.7746H72.201C73.1196 59.9497 73.8966 58.9797 74.5012 57.9032L74.5764 57.7679H79.6577C78.3197 59.7073 76.6811 60.7746 74.9823 60.7746ZM80.695 55.9639H75.4483C76.4104 53.6638 76.9667 50.9727 77.0719 48.1464H82.484C82.3788 51.0329 81.7624 53.754 80.695 55.9639Z" fill="white"/>
</svg>
