<svg width="31" height="31" viewBox="0 0 31 31" fill="none" xmlns="http://www.w3.org/2000/svg">
<path d="M23.25 10.334C25.3901 10.334 27.125 8.59909 27.125 6.45898C27.125 4.31888 25.3901 2.58398 23.25 2.58398C21.1099 2.58398 19.375 4.31888 19.375 6.45898C19.375 8.59909 21.1099 10.334 23.25 10.334Z" stroke="#5A5A5A" stroke-width="2.5" stroke-linecap="round" stroke-linejoin="round"/>
<path d="M7.75 19.375C9.8901 19.375 11.625 17.6401 11.625 15.5C11.625 13.3599 9.8901 11.625 7.75 11.625C5.6099 11.625 3.875 13.3599 3.875 15.5C3.875 17.6401 5.6099 19.375 7.75 19.375Z" stroke="#5A5A5A" stroke-width="2.5" stroke-linecap="round" stroke-linejoin="round"/>
<path d="M23.25 28.416C25.3901 28.416 27.125 26.6811 27.125 24.541C27.125 22.4009 25.3901 20.666 23.25 20.666C21.1099 20.666 19.375 22.4009 19.375 24.541C19.375 26.6811 21.1099 28.416 23.25 28.416Z" stroke="#5A5A5A" stroke-width="2.5" stroke-linecap="round" stroke-linejoin="round"/>
<path d="M11.0938 17.4512L19.9158 22.592" stroke="#5A5A5A" stroke-width="2.5" stroke-linecap="round" stroke-linejoin="round"/>
<path d="M19.9029 8.4082L11.0938 13.549" stroke="#5A5A5A" stroke-width="2.5" stroke-linecap="round" stroke-linejoin="round"/>
</svg>
