<svg width="229" height="229" viewBox="0 0 229 229" fill="none" xmlns="http://www.w3.org/2000/svg">
<path d="M197.905 50.3675L197.926 50.3731L197.947 50.3784L200.145 50.9351V101.332C200.145 142.66 179.338 171.133 158.212 189.398C147.644 198.536 137.036 205.077 129.017 209.331C125.011 211.456 121.663 213.004 119.308 214.014C118.129 214.519 117.207 214.886 116.581 215.122C116.407 215.188 116.261 215.242 116.142 215.284H116.078L115.528 215.479L114.5 215.841L113.505 215.49C112.255 215.018 91.4773 207.086 70.8087 189.253C49.6739 171.017 28.855 142.624 28.855 101.332V50.9351L31.0527 50.3784L31.0706 50.3738L31.0884 50.3691C45.6938 46.5006 59.9645 41.4643 73.7628 35.3091C87.3104 29.4312 100.389 22.526 112.883 14.6536L112.902 14.642L112.92 14.6301L114.543 13.578L116.193 14.5977C128.682 22.4663 141.756 29.3686 155.298 35.2442C169.072 41.4177 183.321 46.475 197.905 50.3675Z" fill="#F6BB00" stroke="#F2C94C" stroke-width="6.82128"/>
</svg>
