<svg width="43" height="43" viewBox="0 0 43 43" fill="none" xmlns="http://www.w3.org/2000/svg">
<path d="M37.625 20.3263V12.7656C37.6238 11.6968 37.1987 10.6722 36.4429 9.91645C35.6872 9.16071 34.6625 8.7356 33.5938 8.73438H9.40625C8.33747 8.7356 7.31282 9.16071 6.55708 9.91645C5.80133 10.6722 5.37622 11.6968 5.375 12.7656V20.3263C4.22194 20.6257 3.20074 21.2991 2.47127 22.2409C1.74181 23.1828 1.34527 24.34 1.34375 25.5312V34.9375C1.34455 35.65 1.62795 36.3331 2.13178 36.837C2.63561 37.3408 3.31873 37.6242 4.03125 37.625H5.375V41.6562H8.0625V37.625H34.9375V41.6562H37.625V37.625H38.9688C39.6813 37.6242 40.3644 37.3408 40.8682 36.837C41.372 36.3331 41.6554 35.65 41.6562 34.9375V25.5312C41.6547 24.34 41.2582 23.1828 40.5287 22.2409C39.7993 21.2991 38.7781 20.6257 37.625 20.3263ZM9.40625 34.9375H4.03125V25.5312C4.03125 24.8185 4.3144 24.1349 4.8184 23.6309C5.3224 23.1269 6.00598 22.8438 6.71875 22.8438C7.43152 22.8438 8.1151 23.1269 8.6191 23.6309C9.1231 24.1349 9.40625 24.8185 9.40625 25.5312V34.9375ZM30.9062 34.9375H12.0938V26.875H30.9062V34.9375ZM31.0763 24.1875H11.9237C11.6817 23.2586 11.1964 22.4111 10.5176 21.7324C9.83889 21.0536 8.99138 20.5683 8.0625 20.3263V12.7656C8.06292 12.4094 8.20463 12.0678 8.45654 11.8159C8.70845 11.564 9.04999 11.4223 9.40625 11.4219H33.5938C33.95 11.4223 34.2915 11.564 34.5435 11.8159C34.7954 12.0678 34.9371 12.4094 34.9375 12.7656V20.3263C34.0086 20.5683 33.1611 21.0536 32.4824 21.7324C31.8036 22.4111 31.3183 23.2586 31.0763 24.1875ZM38.9688 34.9375H33.5938V25.5312C33.5938 24.8185 33.8769 24.1349 34.3809 23.6309C34.8849 23.1269 35.5685 22.8438 36.2812 22.8438C36.994 22.8438 37.6776 23.1269 38.1816 23.6309C38.6856 24.1349 38.9688 24.8185 38.9688 25.5312L38.9704 34.9375H38.9688Z" fill="#DBA11C"/>
</svg>
