<svg width="38" height="38" viewBox="0 0 38 38" fill="none" xmlns="http://www.w3.org/2000/svg">
<circle cx="19" cy="19" r="18" fill="#DBA11C" stroke="white" stroke-width="2"/>
<path d="M20.2095 10.103C19.7145 9.09898 18.2835 9.09898 17.7885 10.103L15.4305 14.88L10.1575 15.646C9.05047 15.807 8.60747 17.168 9.40947 17.949L13.2245 21.669L12.3245 26.919C12.1345 28.022 13.2925 28.863 14.2825 28.343L18.9985 25.863L23.7145 28.343C24.7045 28.863 25.8625 28.023 25.6735 26.919L24.7735 21.669L28.5885 17.949C29.3885 17.169 28.9475 15.807 27.8395 15.646L22.5685 14.88L20.2085 10.103H20.2095Z" fill="white"/>
<path d="M8.16393 10.782C8.03982 10.9374 7.98253 11.1358 8.00466 11.3334C8.02679 11.5311 8.12652 11.7119 8.28193 11.836L10.7819 13.836C10.9373 13.9602 11.1358 14.0177 11.3335 13.9956C11.4314 13.9847 11.5262 13.9546 11.6125 13.9071C11.6988 13.8595 11.7749 13.7954 11.8364 13.7185C11.898 13.6415 11.9437 13.5532 11.9711 13.4586C11.9985 13.3639 12.007 13.2648 11.9961 13.1669C11.9852 13.069 11.9551 12.9742 11.9075 12.8879C11.86 12.8016 11.7959 12.7255 11.7189 12.664L9.21893 10.664C9.14194 10.6024 9.05356 10.5566 8.95885 10.5291C8.86414 10.5017 8.76495 10.4933 8.66696 10.5042C8.56897 10.5152 8.4741 10.5454 8.38779 10.593C8.30147 10.6407 8.2254 10.7049 8.16393 10.782Z" fill="white"/>
<path d="M29.8366 25.218C29.9608 25.0627 30.0183 24.8644 29.9963 24.6667C29.9744 24.4691 29.8748 24.2882 29.7196 24.164L27.2196 22.164C27.0642 22.0396 26.8657 21.982 26.6678 22.004C26.47 22.0259 26.289 22.1255 26.1646 22.281C26.0402 22.4364 25.9826 22.6348 26.0046 22.8327C26.0265 23.0305 26.1262 23.2116 26.2816 23.336L28.7816 25.336C28.8585 25.3976 28.9468 25.4435 29.0415 25.471C29.1362 25.4985 29.2353 25.5071 29.3333 25.4962C29.4313 25.4853 29.5262 25.4553 29.6126 25.4077C29.6989 25.3601 29.775 25.296 29.8366 25.219V25.218Z" fill="white"/>
<path d="M8.28176 24.164C8.12634 24.2882 8.02665 24.4691 8.00462 24.6669C7.98258 24.8646 8.04001 25.063 8.16426 25.2185C8.28852 25.3739 8.46942 25.4736 8.66718 25.4956C8.86493 25.5176 9.06334 25.4602 9.21876 25.336L11.7188 23.336C11.8742 23.2117 11.9739 23.0308 11.9959 22.833C12.0179 22.6353 11.9605 22.4369 11.8363 22.2815C11.712 22.126 11.5311 22.0263 11.3333 22.0043C11.1356 21.9823 10.9372 22.0397 10.7818 22.164L8.28176 24.164Z" fill="white"/>
<path d="M29.8366 10.782C29.9608 10.9373 30.0183 11.1356 29.9963 11.3332C29.9744 11.5309 29.8748 11.7117 29.7196 11.836L27.2196 13.836C27.0642 13.9604 26.8657 14.0179 26.6678 13.996C26.47 13.974 26.289 13.8744 26.1646 13.719C26.0402 13.5636 25.9826 13.3651 26.0046 13.1673C26.0265 12.9694 26.1262 12.7884 26.2816 12.664L28.7816 10.664C28.8586 10.6024 28.9469 10.5566 29.0417 10.5291C29.1364 10.5017 29.2356 10.4933 29.3335 10.5042C29.4315 10.5152 29.5264 10.5454 29.6127 10.593C29.699 10.6407 29.7751 10.7049 29.8366 10.782Z" fill="white"/>
</svg>
