<svg width="34" height="34" viewBox="0 0 34 34" fill="none" xmlns="http://www.w3.org/2000/svg">
<circle cx="17" cy="17" r="17" fill="#DBA11C"/>
<path d="M18.2095 8.10261C17.7145 7.09861 16.2835 7.09861 15.7885 8.10261L13.4305 12.8796L8.15747 13.6456C7.05047 13.8066 6.60747 15.1676 7.40947 15.9486L11.2245 19.6686L10.3245 24.9186C10.1345 26.0216 11.2925 26.8626 12.2825 26.3426L16.9985 23.8626L21.7145 26.3426C22.7045 26.8626 23.8625 26.0226 23.6735 24.9186L22.7735 19.6686L26.5885 15.9486C27.3885 15.1686 26.9475 13.8066 25.8395 13.6456L20.5685 12.8796L18.2085 8.10261H18.2095Z" fill="white"/>
<path d="M6.16393 8.78241C6.03982 8.93784 5.98253 9.13619 6.00466 9.33385C6.02679 9.53151 6.12652 9.71228 6.28193 9.83641L8.78193 11.8364C8.93734 11.9607 9.13576 12.0181 9.33351 11.9961C9.43143 11.9851 9.52624 11.9551 9.61253 11.9075C9.69882 11.86 9.7749 11.7959 9.83643 11.7189C9.89795 11.642 9.94372 11.5536 9.97111 11.459C9.9985 11.3644 10.007 11.2652 9.99607 11.1673C9.98516 11.0694 9.95507 10.9746 9.90752 10.8883C9.85996 10.802 9.79588 10.7259 9.71893 10.6644L7.21893 8.66441C7.14194 8.60281 7.05356 8.55699 6.95885 8.52957C6.86414 8.50216 6.76495 8.49369 6.66696 8.50465C6.56897 8.51561 6.4741 8.54578 6.38779 8.59344C6.30147 8.64111 6.2254 8.70532 6.16393 8.78241Z" fill="white"/>
<path d="M27.8356 23.2186C27.9598 23.0633 28.0173 22.865 27.9953 22.6673C27.9734 22.4697 27.8739 22.2888 27.7186 22.1646L25.2186 20.1646C25.0632 20.0402 24.8647 19.9826 24.6669 20.0046C24.469 20.0265 24.288 20.1262 24.1636 20.2816C24.0392 20.437 23.9817 20.6355 24.0036 20.8333C24.0255 21.0312 24.1252 21.2122 24.2806 21.3366L26.7806 23.3366C26.8575 23.3982 26.9458 23.4441 27.0405 23.4716C27.1352 23.4991 27.2344 23.5077 27.3324 23.4968C27.4303 23.4859 27.5252 23.4559 27.6116 23.4083C27.6979 23.3607 27.7741 23.2966 27.8356 23.2196V23.2186Z" fill="white"/>
<path d="M6.28176 22.1643C6.12634 22.2885 6.02665 22.4694 6.00462 22.6672C5.98258 22.8649 6.04001 23.0633 6.16426 23.2188C6.28852 23.3742 6.46942 23.4739 6.66718 23.4959C6.86493 23.5179 7.06334 23.4605 7.21876 23.3363L9.71876 21.3363C9.87418 21.212 9.97387 21.0311 9.99591 20.8333C10.0179 20.6356 9.96052 20.4372 9.83626 20.2818C9.71201 20.1263 9.5311 20.0267 9.33335 20.0046C9.13559 19.9826 8.93718 20.04 8.78176 20.1643L6.28176 22.1643Z" fill="white"/>
<path d="M27.8356 8.78241C27.9598 8.93771 28.0173 9.13599 27.9953 9.33364C27.9734 9.53129 27.8739 9.71214 27.7186 9.83641L25.2186 11.8364C25.0632 11.9608 24.8647 12.0184 24.6669 11.9964C24.469 11.9745 24.288 11.8748 24.1636 11.7194C24.0392 11.564 23.9817 11.3655 24.0036 11.1677C24.0255 10.9698 24.1252 10.7888 24.2806 10.6644L26.7806 8.66441C26.8576 8.60281 26.946 8.55699 27.0407 8.52957C27.1354 8.50216 27.2346 8.49369 27.3326 8.50465C27.4306 8.51561 27.5254 8.54578 27.6117 8.59344C27.6981 8.64111 27.7741 8.70532 27.8356 8.78241Z" fill="white"/>
</svg>
