<svg width="40" height="42" viewBox="0 0 40 42" fill="none" xmlns="http://www.w3.org/2000/svg">
<rect width="40" height="41.4286" rx="4.38196" fill="#DBA11C"/>
<path d="M14.5807 30.8346H11.3307C10.7561 30.8346 10.205 30.6064 9.79866 30.2C9.39234 29.7937 9.16406 29.2426 9.16406 28.668V21.0846C9.16406 20.51 9.39234 19.9589 9.79866 19.5526C10.205 19.1462 10.7561 18.918 11.3307 18.918H14.5807M22.1641 16.7513V12.418C22.1641 11.556 21.8217 10.7294 21.2122 10.1199C20.6027 9.51038 19.776 9.16797 18.9141 9.16797L14.5807 18.918V30.8346H26.8007C27.3233 30.8405 27.8303 30.6574 28.2285 30.319C28.6266 29.9805 28.889 29.5096 28.9674 28.993L30.4624 19.243C30.5095 18.9324 30.4886 18.6154 30.401 18.3137C30.3134 18.0121 30.1613 17.7331 29.9552 17.4961C29.7491 17.2591 29.494 17.0697 29.2074 16.9411C28.9209 16.8125 28.6098 16.7477 28.2957 16.7513H22.1641Z" stroke="white" stroke-width="2.36364" stroke-linecap="round" stroke-linejoin="round"/>
</svg>
