<svg width="17" height="16" viewBox="0 0 17 16" fill="none" xmlns="http://www.w3.org/2000/svg">
<path d="M14.5 4.875C13.6712 4.875 12.8763 4.54576 12.2903 3.95971C11.7042 3.37366 11.375 2.5788 11.375 1.75C11.375 1.65054 11.3355 1.55516 11.2652 1.48483C11.1948 1.41451 11.0995 1.375 11 1.375H8.5C8.40054 1.375 8.30516 1.41451 8.23483 1.48483C8.16451 1.55516 8.125 1.65054 8.125 1.75V9.75C8.12489 9.99613 8.05873 10.2377 7.9334 10.4495C7.80808 10.6614 7.6282 10.8357 7.41252 10.9543C7.19685 11.0729 6.9533 11.1314 6.7073 11.1238C6.46129 11.1161 6.22184 11.0426 6.01395 10.9108C5.80606 10.7791 5.63734 10.5939 5.52541 10.3747C5.41348 10.1555 5.36244 9.91029 5.37761 9.66464C5.39279 9.41898 5.47363 9.1819 5.61169 8.97814C5.74975 8.77438 5.93997 8.61141 6.1625 8.50625C6.22608 8.47568 6.27975 8.42779 6.31734 8.36809C6.35492 8.30839 6.37491 8.2393 6.375 8.16875V5.56875C6.37484 5.51349 6.36267 5.45892 6.33933 5.40883C6.31599 5.35873 6.28204 5.31432 6.23983 5.27865C6.19762 5.24298 6.14816 5.21691 6.09488 5.20225C6.0416 5.18759 5.98576 5.18469 5.93125 5.19375C5.06561 5.34945 4.26231 5.74876 3.61556 6.34483C2.96882 6.94091 2.50545 7.70903 2.2798 8.55913C2.05415 9.40923 2.07558 10.306 2.34157 11.1444C2.60755 11.9827 3.10707 12.7279 3.78154 13.2924C4.45601 13.8569 5.27746 14.2174 6.14956 14.3316C7.02165 14.4457 7.90822 14.3089 8.70529 13.9371C9.50235 13.5652 10.1769 12.9738 10.6497 12.2322C11.1226 11.4906 11.3742 10.6295 11.375 9.75V7.30625C12.3281 7.84533 13.405 8.12747 14.5 8.125C14.5995 8.125 14.6948 8.08549 14.7652 8.01517C14.8355 7.94484 14.875 7.84946 14.875 7.75V5.25C14.875 5.15054 14.8355 5.05516 14.7652 4.98484C14.6948 4.91451 14.5995 4.875 14.5 4.875V4.875ZM14.125 7.3625C13.0772 7.29584 12.0696 6.93398 11.2187 6.31875C11.1632 6.27863 11.0977 6.2545 11.0294 6.24899C10.961 6.24348 10.8925 6.2568 10.8312 6.2875C10.7697 6.32005 10.7181 6.36857 10.6818 6.42795C10.6455 6.48734 10.6259 6.55541 10.625 6.625V9.75C10.6242 10.4677 10.4241 11.171 10.047 11.7816C9.6699 12.3923 9.13065 12.8862 8.48933 13.2083C7.84801 13.5304 7.12984 13.6681 6.41485 13.6061C5.69987 13.544 5.01617 13.2846 4.43996 12.8568C3.86375 12.4289 3.41768 11.8495 3.15146 11.183C2.88525 10.5165 2.80934 9.78923 2.93222 9.08215C3.05509 8.37508 3.37192 7.71601 3.84737 7.17843C4.32283 6.64084 4.93824 6.24586 5.625 6.0375V7.95C5.31107 8.14591 5.05373 8.42039 4.87847 8.7463C4.7032 9.0722 4.61608 9.43823 4.62572 9.80814C4.63536 10.1781 4.74144 10.539 4.93344 10.8554C5.12545 11.1717 5.39673 11.4324 5.72044 11.6117C6.04415 11.791 6.40906 11.8826 6.77907 11.8776C7.14908 11.8725 7.51135 11.7709 7.83004 11.5828C8.14872 11.3948 8.41277 11.1267 8.59605 10.8053C8.77933 10.4838 8.87548 10.12 8.875 9.75V2.125H10.6437C10.7308 3.01876 11.1255 3.85455 11.7605 4.48953C12.3954 5.1245 13.2312 5.51923 14.125 5.60625V7.3625Z" fill="#393939"/>
</svg>
