<svg width="62" height="62" viewBox="0 0 62 62" fill="none" xmlns="http://www.w3.org/2000/svg">
<path d="M57.2152 24.9463H41.7152C41.4488 24.9463 41.2309 25.1643 41.2309 25.4307V28.3369C41.2309 28.6033 41.4488 28.8213 41.7152 28.8213H57.2152C57.4816 28.8213 57.6996 28.6033 57.6996 28.3369V25.4307C57.6996 25.1643 57.4816 24.9463 57.2152 24.9463ZM49.102 33.1807H41.7152C41.4488 33.1807 41.2309 33.3986 41.2309 33.665V36.5713C41.2309 36.8377 41.4488 37.0557 41.7152 37.0557H49.102C49.3684 37.0557 49.5863 36.8377 49.5863 36.5713V33.665C49.5863 33.3986 49.3684 33.1807 49.102 33.1807ZM28.8975 19.5273H26.2758C25.9004 19.5273 25.5977 19.8301 25.5977 20.2055V35.2211C25.5977 35.4391 25.7006 35.6389 25.8762 35.766L34.8916 42.3414C35.1943 42.5594 35.6182 42.4988 35.8361 42.1961L37.3922 40.0709V40.0648C37.6102 39.7621 37.5436 39.3383 37.2408 39.1203L29.5695 33.5742V20.2055C29.5756 19.8301 29.2668 19.5273 28.8975 19.5273Z" fill="#DBA11C"/>
<path d="M48.7282 40.8022H45.2286C44.8895 40.8022 44.5686 40.9778 44.387 41.2685C43.618 42.4854 42.7219 43.6116 41.6926 44.6409C39.9186 46.4149 37.8539 47.8075 35.5592 48.7763C33.1797 49.7813 30.6549 50.2899 28.0514 50.2899C25.4418 50.2899 22.917 49.7813 20.5436 48.7763C18.2489 47.8075 16.1842 46.4149 14.4102 44.6409C12.6362 42.8669 11.2436 40.8022 10.2748 38.5075C9.26977 36.1341 8.76117 33.6093 8.76117 30.9997C8.76117 28.3901 9.26977 25.8714 10.2748 23.4919C11.2436 21.1972 12.6362 19.1325 14.4102 17.3585C16.1842 15.5845 18.2489 14.1919 20.5436 13.2231C22.917 12.2181 25.4479 11.7095 28.0514 11.7095C30.661 11.7095 33.1858 12.2181 35.5592 13.2231C37.8539 14.1919 39.9186 15.5845 41.6926 17.3585C42.7219 18.3878 43.618 19.514 44.387 20.731C44.5686 21.0216 44.8895 21.1972 45.2286 21.1972H48.7282C49.1459 21.1972 49.4123 20.7612 49.2247 20.3919C45.277 12.539 37.2727 7.43485 28.336 7.33192C15.2518 7.16845 4.38364 17.8792 4.35942 30.9513C4.3352 44.0476 14.9491 54.6735 28.0454 54.6735C37.0971 54.6735 45.2346 49.5513 49.2247 41.6075C49.4123 41.2382 49.1399 40.8022 48.7282 40.8022Z" fill="#DBA11C"/>
</svg>
